<?xml version="1.0" encoding="utf-8"?>
<!-- Generator: Adobe Illustrator 16.0.0, SVG Export Plug-In . SVG Version: 6.00 Build 0)  -->
<!DOCTYPE svg PUBLIC "-//W3C//DTD SVG 1.1//EN" "http://www.w3.org/Graphics/SVG/1.1/DTD/svg11.dtd">
<svg version="1.1" xmlns="http://www.w3.org/2000/svg" xmlns:xlink="http://www.w3.org/1999/xlink" x="0px" y="0px" width="500px"
	 height="500px" viewBox="0 0 500 500" enable-background="new 0 0 500 500" xml:space="preserve">
<g id="Floor">
	<path id="Floor_3_" fill="#1152B9" d="M407.304,248.707c86.876,50.158,86.876,131.48-0.001,181.639
		c-86.877,50.158-227.73,50.159-314.606,0c-86.876-50.158-86.876-131.48,0-181.639S320.428,198.549,407.304,248.707z"/>
</g>
<g id="Shadows">
	<path id="Shadow_4_" fill="#E0E0E0" d="M64.606,386.282l14.819,8.501c1.371,0.792,3.593,0.792,4.963,0l116.86-67.506
		c1.371-0.791,1.367-2.068-0.008-2.852l-14.989-8.421c-1.375-0.784-3.601-0.777-4.972,0.014L64.606,383.416
		C63.236,384.208,63.236,385.49,64.606,386.282z"/>
	<path id="Shadow_2_" fill="#E0E0E0" d="M434.086,386.282l-14.819,8.501c-1.37,0.792-3.593,0.792-4.964,0l-116.859-67.506
		c-1.37-0.791-1.366-2.068,0.009-2.852l14.988-8.421c1.375-0.784,3.601-0.777,4.972,0.014l116.674,67.398
		C435.456,384.208,435.456,385.49,434.086,386.282z"/>
</g>
<g id="Plants">
	<g id="Plants_4_">
		<g id="XMLID_1441_">
			<g id="XMLID_1446_">
				<path id="XMLID_1447_" fill="#27DEBF" d="M422.372,344.236c0,0,0.72-15.151,7.433-27.315
					c6.714-12.164,16.514-20.125,26.054-21.515c9.541-1.389,17.868,6.925,8.005,13.66s-27.688,14.118-34.587,37.333L422.372,344.236
					z"/>
			</g>
			<g id="XMLID_1444_" opacity="0.2">
				<path id="XMLID_1445_" d="M422.372,344.236c0,0,0.72-15.151,7.433-27.315c6.714-12.164,16.514-20.125,26.054-21.515
					c9.541-1.389,17.868,6.925,8.005,13.66s-27.688,14.118-34.587,37.333L422.372,344.236z"/>
			</g>
			<g id="XMLID_1442_">
				<path id="XMLID_1443_" fill="#FFFFFF" d="M424.927,340.146c-0.034-0.004-0.069-0.011-0.104-0.023
					c-0.269-0.089-0.415-0.379-0.325-0.649c8.48-25.592,27.064-37.268,35.705-39.865c0.271-0.084,0.558,0.073,0.64,0.344
					c0.082,0.272-0.071,0.558-0.344,0.64c-8.465,2.544-26.679,14.015-35.026,39.205
					C425.395,340.033,425.163,340.173,424.927,340.146z"/>
			</g>
		</g>
		<g id="XMLID_1429_">
			<g id="XMLID_1435_">
				<g id="XMLID_1439_">
					<path id="XMLID_1440_" fill="#27DEBF" d="M477.454,339.65c-0.786,2.142-2.987,3.375-5.046,4.366
						c-2.047,0.982-4.291,2.056-5.304,4.099c-2.04,4.126,2.105,9.466-0.109,13.5c-0.931,1.69-2.802,2.672-4.675,3.137
						c-1.556,0.398-3.16,0.501-4.749,0.741c-0.769,0.035-1.534,0.029-2.282-0.027c-2.212-0.174-4.597-0.12-6.53,1.134
						c-3.042,1.983-3.751,6.036-5.467,9.238c-2.058,3.834-5.967,6.513-10.202,7.375c-1.407,0.281-4.031,0.71-5.53-0.001
						c-0.117-0.055-0.215-0.108-0.312-0.171c-0.01-0.001-0.019-0.013-0.027-0.024c-0.214-0.21-0.482-0.479-0.6-0.627
						c-0.028-0.024-0.045-0.057-0.062-0.09c-0.695-2.024,0.077-4.229-0.026-6.361c-0.005-0.135-0.012-0.26-0.028-0.386
						c-0.251-2.469-0.482-4.925-0.702-7.391c-0.415-4.535-0.766-9.083-1.033-13.632c-0.163-2.955-0.732-6.164,0.334-9.028
						c1.183-3.15,4.618-3.444,5.722-6.531c0.442-1.23,0.635-2.532,1.059-3.774c1.271-3.647,4.748-6.438,8.593-6.88
						c5.985-0.701,11.695,3.808,17.665,2.971c1.546-0.224,3.028-0.796,4.54-1.179c4.806-1.23,10.519-0.216,13.525,3.721
						C477.463,335.475,478.166,337.707,477.454,339.65z"/>
				</g>
			</g>
			<g id="XMLID_1432_">
				<path id="XMLID_1433_" fill="#FFFFFF" d="M425.445,372.871c-0.014-0.001-0.028-0.004-0.042-0.007
					c-0.277-0.054-0.459-0.325-0.403-0.603c6.25-31.68,38.757-38.338,46.469-38.289c0.279,0.004,0.511,0.233,0.511,0.517
					c-0.002,0.283-0.233,0.512-0.517,0.51c-7.544-0.048-39.341,6.465-45.456,37.461
					C425.955,372.726,425.708,372.902,425.445,372.871z"/>
			</g>
			<g id="XMLID_1430_">
				<path id="XMLID_1431_" fill="#FFFFFF" d="M460.854,354.697c-0.101-0.012-0.199-0.053-0.28-0.125
					c-0.088-0.078-8.996-7.775-22.737-4.82c-0.277,0.056-0.552-0.116-0.611-0.394c-0.06-0.278,0.118-0.551,0.395-0.611
					c14.272-3.066,23.542,4.974,23.635,5.055c0.213,0.188,0.231,0.513,0.044,0.725C461.184,354.657,461.016,354.715,460.854,354.697
					z"/>
			</g>
		</g>
	</g>
	<g id="Plants_1_">
		<g id="XMLID_1306_">
			<g id="XMLID_1353_">
				<path id="XMLID_1355_" fill="#27DEBF" d="M74.915,340.864c0,0-0.499-9.208-4.462-18.988
					c-3.963-9.781-11.581-19.634-20.357-21.492c-8.777-1.858-12.492,4.042-10.64,9.843c1.594,4.994,8.117,9.14,13.068,13.498
					s14.197,14.892,16.768,25.07l4.95,0.541L74.915,340.864z"/>
			</g>
			<g id="XMLID_1350_" opacity="0.15">
				<path id="XMLID_1351_" d="M74.915,340.864c0,0-0.499-9.208-4.462-18.988c-3.963-9.781-11.581-19.634-20.357-21.492
					c-8.777-1.858-12.492,4.042-10.64,9.843c1.594,4.994,8.117,9.14,13.068,13.498s14.197,14.892,16.768,25.07l4.95,0.541
					L74.915,340.864z"/>
			</g>
			<g id="XMLID_1348_">
				<path id="XMLID_1349_" fill="#FFFFFF" d="M71.534,345.448c-0.295,0-0.54-0.234-0.551-0.531
					c-0.921-25.584-25.947-39.891-26.2-40.032c-0.266-0.149-0.36-0.484-0.211-0.75c0.148-0.267,0.484-0.362,0.75-0.212
					c0.258,0.145,25.819,14.758,26.763,40.954c0.011,0.304-0.227,0.56-0.531,0.571C71.548,345.448,71.541,345.448,71.534,345.448z"
					/>
			</g>
		</g>
		<g id="XMLID_1303_">
			<path id="XMLID_1304_" fill="#27DEBF" d="M71.821,380.417c0,0-5.117,3.234-13.111,1.858c-2.547-0.438-5.053-1.419-6.879-3.303
				c-2.063-2.129-2.392-4.271-2.975-7.119c-0.24-1.174-0.497-2.388-1.202-3.357c-1.71-2.354-5.13-2.312-7.975-2.926
				c-4.042-0.872-7.761-3.775-8.931-7.741s0.727-8.801,4.559-10.354c-1.566-1.004-3.133-2.009-4.699-3.013
				c-1.424-0.914-2.865-1.84-4.022-3.076c-1.156-1.235-2.018-2.833-2.03-4.525c-0.019-2.497,1.855-4.724,4.133-5.747
				c2.278-1.022,4.88-1.037,7.361-0.749c2.503,0.291,4.973,0.872,7.343,1.728c0.666,0.241,1.35,0.507,2.057,0.462
				c0.931-0.058,1.732-0.639,2.511-1.152c5.379-3.551,14.136-3.283,17.022,3.412c0.424,0.985,0.677,2.038,1.129,3.011
				c1.674,3.604,6.377,2.52,9.412,4.207c1.973,1.097,3.159,3.284,3.536,5.51c0.604,3.564-0.39,7.632-1.048,11.158
				c-0.638,3.419-1.496,6.797-2.449,10.141c-0.785,2.754-1.642,5.488-2.559,8.201C72.806,377.63,72.381,380.063,71.821,380.417z"/>
		</g>
		<path id="XMLID_1302_" fill="#FFFFFF" d="M75.039,372.173c-2.746-7.841-7.479-14.221-12.845-19.34
			c-0.057-0.125-0.16-0.225-0.295-0.28c-1.692-1.593-3.444-3.062-5.214-4.413c-1.238-7.425,1.748-13.943,1.778-14.008
			c0.129-0.276,0.01-0.604-0.265-0.733c-0.277-0.13-0.604-0.011-0.733,0.265c-0.125,0.265-2.879,6.266-2.023,13.548
			c-11.815-8.617-23.995-12.066-24.199-12.123c-0.292-0.076-0.597,0.092-0.678,0.386c-0.081,0.294,0.092,0.597,0.386,0.678
			c0.229,0.063,15.843,4.484,28.714,15.842c-7.895-1.381-17.331,2.434-17.765,2.613c-0.282,0.116-0.416,0.438-0.301,0.719
			c0.088,0.213,0.293,0.342,0.511,0.342c0.069,0,0.141-0.013,0.209-0.042c0.111-0.046,11.19-4.526,19.019-2.1
			c5.292,5.029,9.96,11.3,12.66,19.009c0.08,0.227,0.293,0.369,0.521,0.369c0.06,0,0.122-0.01,0.182-0.031
			C74.988,372.775,75.14,372.46,75.039,372.173z"/>
	</g>
</g>
<g id="Gears_2_">
	<g id="Gears_1_">
		<g id="XMLID_111_">
			<g id="XMLID_8728_">
				<g id="XMLID_9067_">
					<path id="XMLID_9292_" fill="#27DEBF" d="M57.278,181.153c-1.69,1.786-3.495,2.901-5.133,3.329
						c-0.07,0.019-0.14,0.038-0.217,0.051c-0.051,0.02-0.102,0.026-0.153,0.039c-0.121,0.019-0.235,0.038-0.351,0.057
						c-0.14,0.02-0.274,0.032-0.408,0.039c-0.089,0.006-0.172,0.006-0.255,0.006c-0.038,0.006-0.076,0.006-0.121,0
						c-1.62-0.013-2.965-0.835-3.718-2.493c-0.28-0.625-0.459-1.32-0.542-2.073c0.306-0.14,0.619-0.306,0.938-0.484
						c4.381-2.532,7.926-8.672,7.926-13.729c0-0.383-0.013-0.74-0.044-1.078c0.982-0.434,1.932-0.638,2.799-0.593h0.032
						c0.045,0,0.089,0.006,0.141,0.006c0.051,0.006,0.096,0.013,0.14,0.019c0.051,0,0.102,0.006,0.153,0.019
						c1.346,0.198,2.449,1.007,3.105,2.449C63.24,170.421,61.321,176.887,57.278,181.153z"/>
					<g id="XMLID_9069_">
						<path id="XMLID_9070_" fill="#F5F5F5" d="M71.929,169.133c-0.004-0.004-0.012-0.008-0.02-0.012
							c-0.066-0.035-0.152-0.059-0.246-0.063l-3.384-0.191c-0.343-0.02-0.597-0.266-0.57-0.55c0.047-0.535,0.074-1.065,0.078-1.581
							c0.004-0.574-0.02-1.136-0.074-1.682c-0.023-0.269,0.137-0.714,0.371-0.999l3.778-4.574c0.234-0.285,0.335-0.706,0.23-0.94
							l-1.795-3.969c-0.023-0.055-0.063-0.098-0.109-0.125c-0.008-0.003-0.016-0.007-0.023-0.011
							c-0.148-0.074-0.371-0.012-0.578,0.179l-4.036,3.685c-0.285,0.261-0.671,0.32-0.882,0.148
							c-0.523-0.429-1.101-0.761-1.725-1.003c-0.277-0.109-0.468-0.414-0.406-0.707l1.245-5.647
							c0.039-0.172-0.031-0.316-0.171-0.398c-0.098-0.055-0.227-0.078-0.375-0.066l-3.946,0.394
							c-0.367,0.035-0.753,0.304-0.863,0.601l-2.139,5.737c-0.109,0.297-0.5,0.66-0.862,0.832c-0.808,0.382-1.624,0.854-2.443,1.417
							c-0.332,0.223-0.703,0.238-0.847,0.02l-2.018-3.083c-0.145-0.219-0.468-0.172-0.73,0.097l-4.332,4.578
							c-0.261,0.273-0.41,0.699-0.335,0.948l1.206,4.086c0.074,0.25-0.027,0.69-0.219,0.983c-0.741,1.12-1.405,2.279-1.994,3.458
							c-0.148,0.297-0.566,0.613-0.94,0.703l-3.708,0.894c-0.375,0.09-0.749,0.402-0.839,0.695l-1.865,6.283
							c-0.09,0.293,0.121,0.547,0.46,0.566l3.388,0.191c0.344,0.02,0.593,0.265,0.57,0.55c-0.101,1.132-0.105,2.229-0.008,3.263
							c0.027,0.273-0.133,0.718-0.367,0.999l-3.778,4.578c-0.234,0.281-0.335,0.702-0.23,0.94l1.795,3.965
							c0.023,0.058,0.063,0.097,0.109,0.125c0,0.004,0,0.004,0.004,0.004c0.004,0.004,0.008,0.004,0.012,0.004
							c0.043,0.023,0.09,0.035,0.141,0.035h0.004c0.132,0,0.289-0.07,0.441-0.207l4.031-3.688c0.285-0.258,0.671-0.32,0.882-0.148
							c0.527,0.429,1.104,0.761,1.725,1.003c0.281,0.109,0.473,0.417,0.406,0.706l-1.245,5.651
							c-0.035,0.168,0.031,0.305,0.164,0.386c0.004,0.004,0.008,0.004,0.012,0.008c0.094,0.055,0.222,0.082,0.371,0.066l3.946-0.39
							c0.367-0.039,0.753-0.309,0.862-0.601l2.143-5.737c0.109-0.297,0.5-0.66,0.862-0.835c0.414-0.195,0.835-0.417,1.253-0.66
							c0.394-0.23,0.792-0.484,1.19-0.753c0.328-0.227,0.702-0.242,0.843-0.023l2.021,3.087c0.027,0.039,0.059,0.07,0.098,0.09
							c0.164,0.102,0.418,0.031,0.628-0.191l4.336-4.578c0.258-0.269,0.406-0.699,0.332-0.949l-1.206-4.082
							c-0.074-0.253,0.031-0.695,0.223-0.983c0.742-1.12,1.405-2.283,1.99-3.462c0.148-0.296,0.566-0.608,0.945-0.698l3.704-0.894
							c0.378-0.09,0.753-0.402,0.839-0.699l1.87-6.28C72.187,169.422,72.105,169.235,71.929,169.133z M52.146,184.479
							c-0.074,0.02-0.145,0.039-0.219,0.055c-0.054,0.016-0.105,0.023-0.156,0.035c-0.117,0.023-0.234,0.042-0.351,0.058
							c-0.138,0.02-0.273,0.031-0.407,0.04c-0.085,0.005-0.169,0.008-0.252,0.009c-0.04,0-0.079,0-0.119,0
							c-1.62-0.018-2.968-0.839-3.717-2.5c-0.281-0.621-0.461-1.319-0.542-2.068c-0.047-0.371-0.066-0.753-0.063-1.147
							c0.023-3.579,1.862-8.012,4.894-11.216c0.979-1.034,1.99-1.842,2.989-2.424c0.332-0.195,0.667-0.367,0.995-0.507
							c0.983-0.433,1.932-0.632,2.798-0.593c0.012,0,0.02,0,0.032,0.004c0.046,0,0.093,0.004,0.14,0.008
							c0.051,0.004,0.097,0.008,0.144,0.016c0.051,0.004,0.102,0.008,0.152,0.02c1.347,0.195,2.447,1.007,3.103,2.451
							c1.674,3.704-0.246,10.167-4.289,14.432C55.585,182.938,53.786,184.058,52.146,184.479z"/>
					</g>
					<line id="XMLID_9068_" fill="none" x1="62.21" y1="149.827" x2="70.187" y2="154.446"/>
				</g>
				<path id="XMLID_8742_" fill="#EBEBEB" d="M56.277,157.387c-0.115,0.287-0.498,0.638-0.848,0.803
					c-0.81,0.383-1.626,0.854-2.442,1.416c-0.332,0.224-0.701,0.243-0.848,0.02l-2.015-3.08c-0.026-0.045-0.064-0.077-0.103-0.096
					l-0.032-0.019l-3.788-2.194c0.421-0.242,0.841-0.465,1.256-0.657c0.051-0.025,0.096-0.051,0.146-0.083
					c0.146-0.089,0.287-0.204,0.408-0.325c0.051-0.051,0.102-0.108,0.146-0.166c0.038-0.038,0.064-0.077,0.083-0.115
					c0.019-0.039,0.038-0.07,0.058-0.108L56.277,157.387z"/>
				<path id="XMLID_8740_" fill="#EBEBEB" d="M45.946,166.378v0.006c0.026,0.255-0.076,0.606-0.235,0.854
					c-0.74,1.116-1.403,2.276-1.996,3.456c-0.045,0.089-0.115,0.179-0.198,0.262l-7.978-4.604c0.044-0.039,0.089-0.089,0.115-0.134
					c0.045-0.044,0.07-0.089,0.096-0.134c0.581-1.18,1.25-2.347,1.99-3.462c0.038-0.058,0.07-0.115,0.096-0.179
					c0.025-0.038,0.038-0.083,0.051-0.127c0.013-0.019,0.019-0.045,0.026-0.07c0.006-0.006,0.006-0.019,0.006-0.038
					c0.02-0.058,0.032-0.115,0.039-0.166c0.025-0.095,0.032-0.185,0.019-0.261L45.946,166.378z"/>
				<line id="XMLID_8734_" fill="none" x1="62.303" y1="149.881" x2="62.207" y2="149.83"/>
			</g>
			<path id="XMLID_8736_" fill="#F5F5F5" d="M46.202,154.236l-4.139-2.397c-0.051-0.032-0.108-0.051-0.178-0.051
				c-0.146,0-0.313,0.083-0.459,0.242h-0.006l-2.589,2.735l-1.741,1.837c-0.147,0.153-0.249,0.351-0.306,0.542l6.09,3.494
				l1.887,1.084c0.058-0.178,0.166-0.363,0.3-0.503l0.058-0.058l4.272-4.521c0.198-0.204,0.434-0.281,0.599-0.21L46.202,154.236z"/>
			<path id="XMLID_8735_" fill="#F5F5F5" d="M63.584,150.678c-0.089-0.044-0.21-0.064-0.344-0.051l-3.947,0.395
				c-0.236,0.019-0.478,0.141-0.65,0.3l-7.977-4.604c0.172-0.166,0.421-0.287,0.657-0.313l3.947-0.389
				c0.159-0.019,0.293,0.013,0.389,0.07c0.025,0.02,0.44,0.255,1.065,0.619c0.159,0.096,0.337,0.198,0.522,0.306
				c0.969,0.561,2.232,1.288,3.38,1.958c0.287,0.166,0.567,0.332,0.835,0.485c0.21,0.115,0.414,0.236,0.605,0.344
				C62.877,150.27,63.47,150.608,63.584,150.678z"/>
			<path id="XMLID_9061_" fill="#E6E6E6" d="M43.517,170.957c-0.198,0.204-0.479,0.376-0.74,0.44l-3.711,0.893
				c-0.261,0.064-0.523,0.236-0.682,0.434l-7.99-4.598c0.166-0.21,0.434-0.389,0.708-0.453l3.705-0.893
				c0.262-0.064,0.53-0.223,0.727-0.427h0.006L43.517,170.957z"/>
			<path id="XMLID_8743_" fill="#E6E6E6" d="M40.705,184.29c-0.07,0.198-0.172,0.396-0.299,0.548l-3.775,4.579
				c-0.115,0.134-0.191,0.3-0.236,0.459l-7.971-4.604c0.038-0.166,0.121-0.338,0.236-0.472l3.781-4.579
				c0.121-0.146,0.224-0.344,0.287-0.536L40.705,184.29z"/>
			<path id="XMLID_9300_" fill="#E0E0E0" d="M30.47,176.236l0.115,0.07c-0.051-0.032-0.102-0.058-0.146-0.083
				c-0.096-0.058-0.185-0.108-0.274-0.16L30.47,176.236z"/>
			<path id="XMLID_9291_" fill="#E0E0E0" d="M57.278,181.153c-1.69,1.786-3.495,2.901-5.133,3.329
				c-0.07,0.019-0.14,0.038-0.217,0.051c-0.051,0.02-0.102,0.026-0.153,0.039c-0.121,0.019-0.235,0.038-0.351,0.057
				c-0.14,0.02-0.274,0.032-0.408,0.039c-0.089,0.006-0.172,0.006-0.255,0.006c-0.038,0.006-0.076,0.006-0.121,0
				c-1.62-0.013-2.965-0.835-3.718-2.493c-0.28-0.625-0.459-1.32-0.542-2.073c0.306-0.14,0.619-0.306,0.938-0.484
				c4.381-2.532,7.926-8.672,7.926-13.729c0-0.383-0.013-0.74-0.044-1.078c0.982-0.434,1.932-0.638,2.799-0.593h0.032
				c0.045,0,0.089,0.006,0.141,0.006c0.051,0.006,0.096,0.013,0.14,0.019c0.051,0,0.102,0.006,0.153,0.019
				c1.346,0.198,2.449,1.007,3.105,2.449C63.24,170.421,61.321,176.887,57.278,181.153z"/>
			<path id="XMLID_9060_" fill="#E0E0E0" d="M45.946,166.378l-7.971-4.598c0.006-0.051,0-0.102-0.013-0.147l-1.212-4.081
				c-0.032-0.115-0.019-0.262,0.032-0.408l6.09,3.494l1.887,1.084c-0.057,0.166-0.07,0.325-0.038,0.446l1.205,4.082
				C45.94,166.289,45.946,166.327,45.946,166.378z"/>
			<path id="XMLID_9020_" fill="#E0E0E0" d="M58.643,151.322c-0.096,0.089-0.172,0.191-0.21,0.3l-2.143,5.739
				c0,0.006-0.006,0.019-0.013,0.025l-7.977-4.604c0.013-0.013,0.013-0.026,0.019-0.039l2.143-5.739
				c0.038-0.102,0.108-0.204,0.204-0.287L58.643,151.322z"/>
			<path id="XMLID_9019_" fill="#E0E0E0" d="M70.14,154.421c-0.147-0.057-0.351,0.006-0.555,0.191l-4.03,3.686
				c-0.287,0.262-0.676,0.319-0.886,0.147c-0.523-0.427-1.097-0.759-1.722-1.001c-0.28-0.109-0.472-0.415-0.408-0.708l1.243-5.644
				c0.038-0.172-0.032-0.319-0.172-0.402c-0.007-0.006-0.013-0.006-0.026-0.013c-0.115-0.07-0.708-0.408-1.518-0.88
				c0.051,0,0.102,0.006,0.147,0.025c0,0,0.038,0.019,0.089,0.057L70.14,154.421z"/>
			<path id="XMLID_9018_" fill="#E0E0E0" d="M71.913,169.12c-0.07-0.032-0.153-0.058-0.249-0.058l-3.386-0.191
				c-0.338-0.025-0.593-0.268-0.568-0.555c0.044-0.536,0.077-1.065,0.077-1.582C69.707,167.845,71.677,168.986,71.913,169.12z"/>
			<path id="XMLID_8739_" fill="#E0E0E0" d="M35.654,166.218c-0.025,0.045-0.07,0.096-0.115,0.134h-0.006
				C35.578,166.308,35.623,166.263,35.654,166.218z"/>
			<path id="XMLID_8737_" fill="#E0E0E0" d="M30.394,168.125c-0.063,0.083-0.108,0.166-0.134,0.249l-0.229,0.778l-1.218,4.1
				l-0.415,1.403c-0.025,0.077-0.025,0.16-0.006,0.229c0.013,0.045,0.026,0.083,0.051,0.121c0.025,0.039,0.057,0.077,0.096,0.102
				c0.006,0.007,0.025,0.02,0.063,0.045l0.625,0.363l0.172,0.096v0.006l0.498,0.287l0.268,0.159l0.306,0.172l0.115,0.07l0.325,0.185
				l1.805,1.04c0.013,0.006,0.019,0.013,0.019,0.013l3.8,2.2c-0.159-0.102-0.229-0.281-0.172-0.472l1.639-5.516l0.229-0.771
				c0.026-0.089,0.083-0.179,0.153-0.262L30.394,168.125z"/>
			<path id="XMLID_9017_" fill="#E0E0E0" d="M58.47,192.446v0.006l-4.151-2.41c0.389-0.229,0.791-0.484,1.186-0.752
				c0.332-0.223,0.702-0.242,0.842-0.019l2.021,3.086C58.4,192.395,58.432,192.427,58.47,192.446z"/>
			<path id="XMLID_8939_" fill="#E0E0E0" d="M45.946,192.153l-1.243,5.656c-0.032,0.166,0.032,0.299,0.166,0.382
				c-0.249-0.14-4.151-2.397-6.402-3.705c0.127,0,0.287-0.07,0.44-0.204l4.03-3.686c0.287-0.261,0.67-0.325,0.88-0.153
				c0.53,0.434,1.104,0.765,1.729,1.007C45.825,191.56,46.017,191.866,45.946,192.153z"/>
			<path id="XMLID_8741_" fill="#E0E0E0" d="M40.775,183.837c0.013,0.127-0.013,0.287-0.07,0.453l-7.977-4.604
				c0.058-0.172,0.089-0.332,0.077-0.459c-0.051-0.548-0.077-1.109-0.07-1.684l3.8,2.2c0.007,0.006,0.013,0.013,0.02,0.013
				c0.076,0.044,0.166,0.07,0.268,0.077l3.393,0.191c0.344,0.019,0.593,0.268,0.567,0.555
				C40.679,181.708,40.679,182.804,40.775,183.837z"/>
			<path id="XMLID_8738_" fill="#E0E0E0" d="M38.294,194.442c-0.127-0.07-0.765-0.44-1.626-0.938
				c-0.102-0.057-0.204-0.121-0.306-0.178c-0.784-0.459-1.722-0.995-2.614-1.512c-0.243-0.14-0.479-0.28-0.708-0.408
				c-1.384-0.81-2.538-1.473-2.685-1.556l-0.013-0.013c-0.026-0.013-0.051-0.032-0.064-0.051c-0.025-0.025-0.038-0.051-0.051-0.077
				l-1.798-3.973c-0.045-0.089-0.051-0.204-0.032-0.332c0.007-0.045,0.02-0.089,0.026-0.134l7.971,4.604
				c-0.051,0.178-0.051,0.357,0.006,0.478l1.792,3.966C38.218,194.378,38.25,194.41,38.294,194.442z"/>
		</g>
		<g id="XMLID_107_">
			<g id="XMLID_8943_">
				<g id="XMLID_8991_">
					<g id="XMLID_8993_">
						<path id="XMLID_8994_" fill="#F5F5F5" d="M104.845,104.575c-0.006-0.005-0.016-0.011-0.027-0.016
							c-0.091-0.048-0.209-0.081-0.337-0.085l-4.649-0.263c-0.472-0.027-0.82-0.365-0.783-0.756
							c0.064-0.734,0.102-1.464,0.107-2.171c0.006-0.789-0.027-1.561-0.102-2.311c-0.032-0.37,0.188-0.981,0.509-1.373l5.19-6.285
							c0.322-0.391,0.461-0.97,0.316-1.292l-2.467-5.453c-0.032-0.075-0.085-0.134-0.15-0.172c-0.011-0.005-0.021-0.011-0.032-0.016
							c-0.204-0.102-0.509-0.016-0.793,0.247l-5.544,5.062c-0.392,0.359-0.922,0.439-1.212,0.204
							c-0.718-0.59-1.512-1.045-2.37-1.378c-0.381-0.15-0.644-0.568-0.558-0.971l1.711-7.759c0.054-0.236-0.043-0.434-0.236-0.547
							c-0.134-0.075-0.311-0.107-0.515-0.091l-5.421,0.542c-0.504,0.048-1.035,0.418-1.185,0.826l-2.938,7.882
							c-0.15,0.408-0.686,0.906-1.185,1.142c-1.11,0.525-2.23,1.174-3.356,1.947c-0.456,0.306-0.965,0.327-1.164,0.027l-2.772-4.236
							c-0.199-0.3-0.644-0.236-1.003,0.134l-5.952,6.29c-0.359,0.375-0.563,0.96-0.461,1.303l1.657,5.614
							c0.102,0.343-0.038,0.949-0.3,1.351c-1.019,1.539-1.931,3.131-2.74,4.751c-0.204,0.407-0.777,0.842-1.292,0.965l-5.094,1.228
							c-0.515,0.124-1.029,0.552-1.152,0.955L55.98,118.5c-0.123,0.402,0.167,0.75,0.633,0.777l4.654,0.263
							c0.472,0.027,0.815,0.365,0.783,0.756c-0.139,1.555-0.145,3.062-0.01,4.482c0.037,0.375-0.183,0.986-0.504,1.373l-5.19,6.29
							c-0.322,0.386-0.461,0.965-0.316,1.292l2.466,5.448c0.033,0.081,0.086,0.134,0.15,0.171c0,0.005,0,0.005,0.005,0.005
							c0.005,0.005,0.011,0.005,0.016,0.005c0.059,0.032,0.124,0.048,0.193,0.048h0.005c0.183,0,0.397-0.097,0.606-0.284
							l5.539-5.067c0.391-0.354,0.922-0.44,1.212-0.204c0.724,0.59,1.518,1.045,2.37,1.378c0.386,0.15,0.649,0.574,0.558,0.97
							l-1.71,7.764c-0.048,0.231,0.043,0.418,0.225,0.531c0.005,0.005,0.011,0.005,0.016,0.011c0.129,0.075,0.306,0.113,0.509,0.091
							l5.421-0.536c0.504-0.054,1.035-0.424,1.185-0.826l2.944-7.882c0.15-0.407,0.686-0.906,1.185-1.147
							c0.568-0.268,1.147-0.574,1.721-0.906c0.542-0.316,1.088-0.665,1.635-1.035c0.45-0.311,0.965-0.333,1.158-0.032l2.777,4.241
							c0.038,0.054,0.081,0.097,0.134,0.124c0.225,0.139,0.574,0.043,0.863-0.263l5.957-6.29c0.354-0.37,0.558-0.96,0.456-1.303
							l-1.657-5.608c-0.102-0.349,0.043-0.955,0.306-1.352c1.019-1.539,1.93-3.137,2.734-4.756c0.204-0.408,0.777-0.836,1.297-0.96
							l5.088-1.228c0.521-0.124,1.035-0.553,1.153-0.96l2.568-8.627C105.198,104.972,105.086,104.715,104.845,104.575z
							 M77.665,125.659c-0.102,0.027-0.198,0.054-0.3,0.075c-0.075,0.021-0.145,0.032-0.214,0.048
							c-0.161,0.032-0.322,0.059-0.483,0.08c-0.189,0.027-0.375,0.042-0.56,0.054c-0.116,0.007-0.232,0.011-0.347,0.013
							c-0.055,0.001-0.109,0-0.163,0c-2.226-0.025-4.078-1.153-5.107-3.434c-0.386-0.853-0.633-1.813-0.745-2.842
							c-0.064-0.509-0.091-1.035-0.086-1.577c0.032-4.917,2.558-11.008,6.724-15.41c1.346-1.421,2.735-2.531,4.107-3.33
							c0.456-0.268,0.917-0.504,1.367-0.697c1.352-0.595,2.654-0.869,3.845-0.815c0.016,0,0.027,0,0.043,0.006
							c0.064,0,0.129,0.005,0.193,0.011c0.07,0.005,0.134,0.01,0.199,0.021c0.069,0.005,0.14,0.011,0.209,0.026
							c1.85,0.269,3.362,1.384,4.263,3.368c2.3,5.088-0.338,13.968-5.893,19.829C82.389,123.541,79.917,125.08,77.665,125.659z"/>
					</g>
					<line id="XMLID_8992_" fill="none" x1="91.491" y1="78.05" x2="102.451" y2="84.396"/>
				</g>
				<path id="XMLID_8982_" fill="#EBEBEB" d="M83.339,88.436c-0.158,0.395-0.683,0.876-1.165,1.104
					c-1.113,0.525-2.234,1.174-3.355,1.945c-0.456,0.307-0.964,0.333-1.166,0.026l-2.769-4.231c-0.035-0.062-0.087-0.105-0.14-0.131
					l-0.043-0.026l-2.754-1.598c0.578-0.333,1.156-0.64,1.726-0.902c0.07-0.035,0.131-0.07,0.201-0.114
					c0.202-0.123,0.395-0.28,0.561-0.447c0.07-0.07,0.141-0.149,0.202-0.228c0.053-0.053,0.088-0.105,0.114-0.158
					c0.026-0.053,0.052-0.096,0.079-0.149L83.339,88.436z"/>
				<path id="XMLID_8980_" fill="#EBEBEB" d="M69.146,100.789v0.009c0.035,0.351-0.105,0.833-0.324,1.174
					c-1.017,1.533-1.928,3.128-2.742,4.749c-0.062,0.123-0.158,0.245-0.272,0.359l-8.51-4.91c0.062-0.053,0.123-0.123,0.158-0.184
					c0.061-0.061,0.096-0.123,0.131-0.184c0.798-1.621,1.717-3.224,2.734-4.757c0.052-0.079,0.096-0.158,0.131-0.246
					c0.035-0.052,0.053-0.114,0.07-0.175c0.018-0.026,0.026-0.061,0.035-0.096c0.008-0.009,0.008-0.026,0.008-0.053
					c0.026-0.079,0.044-0.158,0.053-0.228c0.035-0.131,0.043-0.254,0.026-0.359L69.146,100.789z"/>
				<line id="XMLID_8965_" fill="none" x1="91.619" y1="78.124" x2="91.487" y2="78.054"/>
			</g>
			<path id="XMLID_8976_" fill="#F5F5F5" d="M71.947,85.524l-5.686-3.294c-0.07-0.044-0.149-0.07-0.245-0.07
				c-0.202,0-0.43,0.114-0.631,0.333h-0.009l-3.557,3.759l-2.392,2.523c-0.202,0.21-0.342,0.481-0.42,0.745l5.917,3.385l2.593,1.489
				c0.079-0.245,0.228-0.499,0.412-0.692l0.079-0.079l5.87-6.211c0.271-0.28,0.596-0.386,0.824-0.289L71.947,85.524z"/>
			<path id="XMLID_8975_" fill="#F5F5F5" d="M93.379,79.219c-0.123-0.061-0.289-0.087-0.473-0.07l-5.423,0.543
				c-0.324,0.026-0.657,0.193-0.894,0.412l-8.51-4.91c0.237-0.228,0.578-0.394,0.902-0.429l5.423-0.535
				c0.219-0.026,0.403,0.018,0.534,0.097c0.035,0.026,0.604,0.351,1.463,0.85c0.219,0.131,0.464,0.271,0.718,0.421
				c1.332,0.771,0.616,0.354,2.193,1.274c0.394,0.228,0.78,0.456,1.148,0.666c0.289,0.158,0.569,0.324,0.832,0.473
				C92.407,78.659,93.222,79.123,93.379,79.219z"/>
			<path id="XMLID_8990_" fill="#E6E6E6" d="M65.808,107.08c-0.271,0.28-0.657,0.517-1.016,0.604l-5.099,1.227
				c-0.359,0.087-0.719,0.324-0.938,0.596l-8.527-4.901c0.228-0.289,0.596-0.534,0.972-0.622l5.09-1.227
				c0.359-0.087,0.727-0.307,0.999-0.587h0.008L65.808,107.08z"/>
			<path id="XMLID_8983_" fill="#E6E6E6" d="M61.945,125.399c-0.096,0.271-0.237,0.543-0.412,0.753l-5.187,6.291
				c-0.158,0.184-0.263,0.412-0.324,0.631l-8.501-4.91c0.053-0.228,0.167-0.464,0.324-0.648l5.195-6.29
				c0.167-0.202,0.307-0.473,0.395-0.736L61.945,125.399z"/>
			<path id="XMLID_9303_" fill="#E0E0E0" d="M50.333,115.75l0.158,0.096c-0.07-0.044-0.14-0.079-0.202-0.114
				c-0.131-0.079-0.254-0.149-0.376-0.219L50.333,115.75z"/>
			<path id="XMLID_8998_" fill="#E0E0E0" d="M84.715,121.089c-2.322,2.453-4.801,3.986-7.053,4.573
				c-0.097,0.026-0.193,0.053-0.298,0.07c-0.07,0.026-0.141,0.035-0.21,0.053c-0.167,0.026-0.324,0.052-0.482,0.079
				c-0.192,0.026-0.377,0.044-0.561,0.052c-0.123,0.009-0.237,0.009-0.351,0.009c-0.053,0.009-0.105,0.009-0.166,0
				c-2.226-0.017-4.074-1.147-5.108-3.425c-0.385-0.859-0.63-1.813-0.745-2.847c0.42-0.193,0.85-0.421,1.289-0.666
				c6.019-3.479,10.89-11.915,10.89-18.863c0-0.526-0.018-1.017-0.062-1.48c1.35-0.596,2.655-0.876,3.847-0.815h0.043
				c0.061,0,0.123,0.009,0.193,0.009c0.07,0.009,0.131,0.018,0.192,0.026c0.07,0,0.141,0.009,0.21,0.026
				c1.849,0.272,3.364,1.384,4.267,3.365C92.906,106.344,90.27,115.228,84.715,121.089z"/>
			<path id="XMLID_8989_" fill="#E0E0E0" d="M69.146,100.789l-8.501-4.901c0.008-0.07,0-0.14-0.018-0.202l-1.665-5.607
				c-0.044-0.158-0.026-0.359,0.044-0.561l5.917,3.385l2.593,1.489c-0.079,0.228-0.096,0.447-0.052,0.613l1.656,5.607
				C69.138,100.667,69.146,100.719,69.146,100.789z"/>
			<path id="XMLID_8988_" fill="#E0E0E0" d="M86.59,80.104c-0.131,0.123-0.237,0.263-0.289,0.412l-2.944,7.885
				c0,0.009-0.009,0.026-0.018,0.035l-8.51-4.91c0.018-0.018,0.018-0.035,0.026-0.053l2.944-7.885
				c0.052-0.141,0.149-0.281,0.28-0.395L86.59,80.104z"/>
			<path id="XMLID_8987_" fill="#E0E0E0" d="M102.386,84.362c-0.202-0.079-0.482,0.009-0.762,0.263l-5.537,5.064
				c-0.395,0.359-0.929,0.438-1.218,0.202c-0.719-0.587-1.507-1.043-2.366-1.375c-0.385-0.149-0.648-0.57-0.561-0.973l1.708-7.753
				c0.052-0.237-0.044-0.438-0.237-0.552c-0.009-0.009-0.017-0.009-0.035-0.018c-0.157-0.096-0.972-0.561-2.085-1.209
				c0.07,0,0.14,0.009,0.202,0.035c0,0,0.053,0.026,0.123,0.079L102.386,84.362z"/>
			<path id="XMLID_8986_" fill="#E0E0E0" d="M104.822,104.557c-0.096-0.044-0.21-0.079-0.342-0.079l-4.652-0.263
				c-0.465-0.035-0.815-0.368-0.78-0.762c0.061-0.736,0.105-1.463,0.105-2.173C101.791,102.804,104.498,104.373,104.822,104.557z"/>
			<path id="XMLID_8979_" fill="#E0E0E0" d="M57.456,101.986c-0.035,0.062-0.097,0.131-0.158,0.184H57.29
				C57.351,102.108,57.412,102.047,57.456,101.986z"/>
			<path id="XMLID_8977_" fill="#E0E0E0" d="M50.228,104.605c-0.088,0.114-0.149,0.228-0.184,0.342l-0.315,1.069l-1.673,5.633
				l-0.57,1.928c-0.035,0.105-0.035,0.219-0.009,0.315c0.018,0.061,0.035,0.114,0.07,0.167c0.035,0.052,0.079,0.105,0.131,0.14
				c0.009,0.008,0.035,0.026,0.088,0.061l0.858,0.5l0.237,0.131v0.009l0.683,0.394l0.368,0.219l0.42,0.237l0.158,0.096l0.447,0.254
				l2.479,1.428c0.018,0.009,0.026,0.018,0.026,0.018l2.771,1.607c-0.219-0.14-0.315-0.386-0.236-0.648l2.251-7.579l0.315-1.06
				c0.035-0.123,0.114-0.245,0.21-0.359L50.228,104.605z"/>
			<path id="XMLID_8985_" fill="#E0E0E0" d="M86.353,136.605v0.009l-5.703-3.312c0.534-0.315,1.086-0.666,1.629-1.034
				c0.456-0.307,0.964-0.333,1.157-0.026l2.777,4.241C86.257,136.535,86.301,136.579,86.353,136.605z"/>
			<path id="XMLID_8984_" fill="#E0E0E0" d="M69.146,136.202l-1.708,7.771c-0.044,0.228,0.044,0.412,0.228,0.525
				c-0.342-0.192-5.704-3.294-8.796-5.09c0.175,0,0.394-0.096,0.604-0.28l5.537-5.063c0.394-0.359,0.92-0.447,1.208-0.21
				c0.728,0.596,1.516,1.051,2.375,1.384C68.98,135.387,69.243,135.808,69.146,136.202z"/>
			<path id="XMLID_8981_" fill="#E0E0E0" d="M62.041,124.777c0.018,0.175-0.018,0.394-0.096,0.622l-8.51-4.91
				c0.079-0.237,0.123-0.456,0.105-0.631c-0.07-0.753-0.105-1.524-0.096-2.313l2.771,1.607c0.009,0.009,0.018,0.017,0.026,0.017
				c0.105,0.062,0.228,0.097,0.368,0.105l4.661,0.263c0.473,0.026,0.815,0.368,0.78,0.762
				C61.91,121.851,61.91,123.358,62.041,124.777z"/>
			<path id="XMLID_8978_" fill="#E0E0E0" d="M58.633,139.347c-0.175-0.096-1.051-0.604-2.234-1.288
				c-0.14-0.079-0.28-0.167-0.42-0.245c-1.078-0.631-2.366-1.367-3.592-2.077c-0.333-0.192-0.657-0.385-0.972-0.561
				c-1.901-1.112-1.037-0.608-1.239-0.722l-0.018-0.017c-0.035-0.018-0.07-0.044-0.087-0.07c-0.035-0.035-0.053-0.07-0.07-0.105
				l-2.471-5.458c-0.062-0.123-0.07-0.28-0.044-0.456c0.009-0.061,0.026-0.123,0.035-0.184l8.501,4.91
				c-0.07,0.245-0.07,0.491,0.009,0.657l2.462,5.449C58.528,139.259,58.571,139.303,58.633,139.347z"/>
		</g>
	</g>
	<g id="Gears">
		<g id="XMLID_1769_">
			<g id="XMLID_1828_">
				<g id="XMLID_1850_">
					<path id="XMLID_1882_" fill="#27DEBF" d="M410.755,109.365c1.69,1.785,3.495,2.901,5.134,3.329
						c0.07,0.019,0.141,0.038,0.217,0.051c0.051,0.019,0.102,0.025,0.153,0.038c0.121,0.02,0.235,0.039,0.351,0.058
						c0.14,0.019,0.273,0.032,0.408,0.038c0.089,0.006,0.172,0.006,0.255,0.006c0.038,0.006,0.076,0.006,0.121,0
						c1.619-0.013,2.965-0.835,3.718-2.493c0.28-0.625,0.459-1.32,0.542-2.072c-0.307-0.141-0.619-0.306-0.938-0.485
						c-4.381-2.531-7.927-8.672-7.927-13.729c0-0.383,0.013-0.74,0.045-1.078c-0.982-0.434-1.933-0.638-2.8-0.593h-0.031
						c-0.045,0-0.09,0.006-0.141,0.006c-0.051,0.007-0.096,0.013-0.14,0.02c-0.052,0-0.103,0.006-0.153,0.019
						c-1.346,0.198-2.449,1.007-3.105,2.449C404.793,98.632,406.712,105.099,410.755,109.365z"/>
					<g id="XMLID_1863_">
						<path id="XMLID_1864_" fill="#F5F5F5" d="M395.904,97.841l1.87,6.279c0.086,0.297,0.46,0.609,0.839,0.699l3.703,0.894
							c0.379,0.09,0.797,0.402,0.945,0.699c0.585,1.179,1.248,2.342,1.99,3.462c0.191,0.289,0.297,0.729,0.223,0.983l-1.206,4.082
							c-0.074,0.25,0.074,0.679,0.331,0.949l4.336,4.578c0.211,0.223,0.465,0.293,0.629,0.191c0.039-0.02,0.07-0.051,0.098-0.09
							l2.021-3.087c0.141-0.219,0.515-0.203,0.843,0.023c0.397,0.269,0.796,0.522,1.19,0.753c0.418,0.242,0.839,0.464,1.253,0.66
							c0.362,0.175,0.753,0.539,0.862,0.835l2.143,5.737c0.109,0.292,0.496,0.562,0.862,0.601l3.946,0.39
							c0.147,0.016,0.276-0.012,0.37-0.066c0.004-0.004,0.008-0.004,0.012-0.008c0.133-0.082,0.199-0.219,0.164-0.386l-1.245-5.651
							c-0.066-0.289,0.125-0.597,0.406-0.706c0.62-0.242,1.198-0.574,1.725-1.003c0.211-0.171,0.598-0.109,0.882,0.148l4.032,3.688
							c0.152,0.137,0.308,0.207,0.44,0.207h0.004c0.051,0,0.098-0.012,0.141-0.035c0.004,0,0.008,0,0.012-0.004
							c0.004,0,0.004,0,0.004-0.004c0.047-0.027,0.086-0.066,0.109-0.125l1.795-3.965c0.105-0.238,0.004-0.659-0.229-0.94
							l-3.778-4.578c-0.234-0.281-0.395-0.726-0.367-0.999c0.098-1.035,0.094-2.131-0.008-3.263c-0.023-0.285,0.227-0.531,0.57-0.55
							l3.388-0.191c0.339-0.02,0.55-0.273,0.46-0.566l-1.865-6.283c-0.09-0.293-0.465-0.605-0.839-0.695l-3.708-0.894
							c-0.374-0.09-0.792-0.406-0.94-0.703c-0.589-1.179-1.253-2.338-1.994-3.458c-0.191-0.292-0.293-0.733-0.219-0.983l1.206-4.086
							c0.074-0.25-0.074-0.675-0.336-0.948l-4.331-4.578c-0.262-0.269-0.586-0.316-0.73-0.098l-2.018,3.083
							c-0.145,0.218-0.516,0.203-0.847-0.02c-0.819-0.562-1.636-1.034-2.443-1.417c-0.363-0.171-0.753-0.535-0.862-0.831
							l-2.139-5.737c-0.109-0.296-0.496-0.565-0.863-0.601l-3.945-0.394c-0.148-0.012-0.277,0.012-0.375,0.066
							c-0.14,0.082-0.21,0.227-0.171,0.398l1.245,5.647c0.063,0.292-0.129,0.597-0.406,0.707c-0.625,0.242-1.202,0.574-1.725,1.003
							c-0.211,0.171-0.598,0.113-0.883-0.148l-4.035-3.684c-0.207-0.191-0.43-0.254-0.578-0.18
							c-0.007,0.004-0.015,0.008-0.022,0.012c-0.047,0.027-0.086,0.07-0.109,0.125l-1.796,3.969
							c-0.105,0.234-0.004,0.656,0.23,0.941l3.778,4.574c0.233,0.285,0.394,0.73,0.37,1c-0.055,0.546-0.078,1.108-0.074,1.682
							c0.004,0.515,0.031,1.046,0.078,1.58c0.027,0.285-0.226,0.531-0.569,0.55l-3.384,0.191c-0.094,0.004-0.18,0.027-0.246,0.063
							c-0.008,0.004-0.016,0.008-0.02,0.012C395.928,97.447,395.846,97.634,395.904,97.841z M410.755,109.361
							c-4.044-4.265-5.964-10.729-4.289-14.432c0.655-1.444,1.756-2.255,3.103-2.451c0.051-0.012,0.102-0.016,0.152-0.02
							c0.047-0.008,0.094-0.012,0.145-0.016c0.046-0.004,0.094-0.008,0.14-0.008c0.012-0.004,0.02-0.004,0.031-0.004
							c0.866-0.039,1.815,0.16,2.799,0.593c0.327,0.141,0.663,0.312,0.995,0.507c0.999,0.582,2.01,1.389,2.989,2.424
							c3.032,3.204,4.87,7.637,4.894,11.216c0.004,0.394-0.016,0.776-0.062,1.147c-0.082,0.75-0.262,1.448-0.543,2.069
							c-0.749,1.66-2.098,2.481-3.718,2.5c-0.039,0-0.078,0-0.118,0c-0.084-0.001-0.168-0.004-0.253-0.009
							c-0.134-0.009-0.269-0.02-0.407-0.04c-0.117-0.016-0.233-0.035-0.351-0.059c-0.051-0.012-0.102-0.02-0.156-0.035
							c-0.074-0.016-0.145-0.035-0.219-0.055C414.247,112.269,412.448,111.149,410.755,109.361z"/>
					</g>
					<line id="XMLID_1862_" fill="none" x1="405.823" y1="78.039" x2="397.846" y2="82.658"/>
				</g>
				<path id="XMLID_1835_" fill="#EBEBEB" d="M411.756,85.599c0.115,0.287,0.498,0.638,0.849,0.803
					c0.81,0.382,1.626,0.854,2.442,1.416c0.331,0.223,0.701,0.242,0.848,0.019l2.016-3.08c0.025-0.045,0.063-0.077,0.102-0.096
					l0.032-0.019l3.787-2.194c-0.421-0.242-0.841-0.465-1.256-0.657c-0.051-0.026-0.096-0.051-0.146-0.083
					c-0.146-0.089-0.287-0.204-0.408-0.325c-0.051-0.051-0.103-0.108-0.146-0.166c-0.038-0.039-0.063-0.077-0.083-0.115
					c-0.02-0.038-0.038-0.07-0.058-0.108L411.756,85.599z"/>
				<path id="XMLID_1830_" fill="#EBEBEB" d="M422.087,94.59v0.006c-0.026,0.255,0.076,0.606,0.235,0.855
					c0.74,1.116,1.403,2.276,1.996,3.456c0.045,0.089,0.115,0.178,0.197,0.261l7.978-4.604c-0.044-0.038-0.089-0.089-0.114-0.134
					c-0.045-0.044-0.07-0.089-0.096-0.134c-0.581-1.18-1.25-2.347-1.99-3.463c-0.038-0.057-0.069-0.115-0.095-0.178
					c-0.026-0.039-0.039-0.083-0.052-0.128c-0.013-0.019-0.019-0.044-0.025-0.07c-0.006-0.006-0.006-0.019-0.006-0.039
					c-0.02-0.057-0.032-0.115-0.038-0.166c-0.026-0.096-0.032-0.185-0.02-0.261L422.087,94.59z"/>
				<line id="XMLID_1829_" fill="none" x1="405.73" y1="78.093" x2="405.826" y2="78.042"/>
			</g>
			<path id="XMLID_1827_" fill="#F5F5F5" d="M421.831,82.448l4.139-2.398c0.052-0.032,0.108-0.051,0.179-0.051
				c0.146,0,0.313,0.083,0.459,0.242h0.007l2.589,2.736l1.741,1.836c0.146,0.153,0.248,0.351,0.306,0.542l-6.09,3.495l-1.888,1.084
				c-0.058-0.179-0.166-0.363-0.3-0.504l-0.057-0.057l-4.273-4.521c-0.197-0.204-0.434-0.281-0.599-0.21L421.831,82.448z"/>
			<path id="XMLID_1826_" fill="#F5F5F5" d="M404.448,78.89c0.09-0.045,0.211-0.064,0.345-0.051l3.947,0.396
				c0.235,0.019,0.479,0.14,0.65,0.3l7.977-4.604c-0.172-0.166-0.42-0.287-0.656-0.313l-3.947-0.389
				c-0.159-0.019-0.293,0.013-0.389,0.07c-0.025,0.019-0.44,0.255-1.065,0.619c-0.159,0.096-0.338,0.198-0.522,0.306
				c-0.97,0.562-2.232,1.289-3.38,1.958c-0.287,0.166-0.567,0.332-0.835,0.484c-0.211,0.115-0.415,0.236-0.606,0.344
				C405.156,78.482,404.563,78.82,404.448,78.89z"/>
			<path id="XMLID_1825_" fill="#E6E6E6" d="M424.516,99.168c0.198,0.204,0.479,0.376,0.74,0.44l3.711,0.893
				c0.262,0.063,0.523,0.236,0.683,0.434l7.99-4.598c-0.166-0.21-0.434-0.389-0.708-0.453l-3.705-0.893
				c-0.262-0.063-0.529-0.223-0.727-0.427h-0.007L424.516,99.168z"/>
			<path id="XMLID_1824_" fill="#E6E6E6" d="M427.328,112.502c0.07,0.198,0.172,0.396,0.3,0.548l3.775,4.579
				c0.114,0.134,0.191,0.3,0.235,0.459l7.972-4.604c-0.039-0.166-0.122-0.338-0.236-0.472l-3.781-4.579
				c-0.121-0.146-0.224-0.344-0.287-0.536L427.328,112.502z"/>
			<path id="XMLID_1823_" fill="#E0E0E0" d="M437.563,104.448l-0.115,0.07c0.051-0.032,0.103-0.057,0.146-0.083
				c0.096-0.058,0.186-0.108,0.274-0.16L437.563,104.448z"/>
			<path id="XMLID_1822_" fill="#E0E0E0" d="M410.755,109.365c1.69,1.785,3.495,2.901,5.134,3.329
				c0.07,0.019,0.141,0.038,0.217,0.051c0.051,0.019,0.102,0.025,0.153,0.038c0.121,0.02,0.235,0.039,0.351,0.058
				c0.14,0.019,0.273,0.032,0.408,0.038c0.089,0.006,0.172,0.006,0.255,0.006c0.038,0.006,0.076,0.006,0.121,0
				c1.619-0.013,2.965-0.835,3.718-2.493c0.28-0.625,0.459-1.32,0.542-2.072c-0.307-0.141-0.619-0.306-0.938-0.485
				c-4.381-2.531-7.927-8.672-7.927-13.729c0-0.383,0.013-0.74,0.045-1.078c-0.982-0.434-1.933-0.638-2.8-0.593h-0.031
				c-0.045,0-0.09,0.006-0.141,0.006c-0.051,0.007-0.096,0.013-0.14,0.02c-0.052,0-0.103,0.006-0.153,0.019
				c-1.346,0.198-2.449,1.007-3.105,2.449C404.793,98.632,406.712,105.099,410.755,109.365z"/>
			<path id="XMLID_1821_" fill="#E0E0E0" d="M422.087,94.59l7.971-4.598c-0.007-0.051,0-0.103,0.013-0.147l1.211-4.081
				c0.032-0.115,0.02-0.261-0.031-0.408l-6.09,3.495l-1.888,1.084c0.058,0.166,0.07,0.325,0.038,0.446l-1.205,4.081
				C422.093,94.5,422.087,94.539,422.087,94.59z"/>
			<path id="XMLID_1803_" fill="#E0E0E0" d="M409.391,79.534c0.096,0.089,0.172,0.191,0.21,0.3l2.143,5.739
				c0,0.006,0.007,0.019,0.013,0.026l7.978-4.604c-0.013-0.013-0.013-0.025-0.019-0.038l-2.143-5.739
				c-0.039-0.102-0.108-0.204-0.205-0.287L409.391,79.534z"/>
			<path id="XMLID_1798_" fill="#E0E0E0" d="M397.894,82.633c0.146-0.057,0.351,0.007,0.555,0.191l4.03,3.686
				c0.287,0.261,0.676,0.319,0.886,0.146c0.522-0.427,1.097-0.759,1.722-1.001c0.281-0.108,0.472-0.415,0.408-0.708l-1.243-5.643
				c-0.038-0.172,0.031-0.319,0.172-0.402c0.007-0.006,0.013-0.006,0.025-0.013c0.115-0.07,0.708-0.408,1.518-0.88
				c-0.051,0-0.102,0.007-0.146,0.026c0,0-0.038,0.019-0.089,0.057L397.894,82.633z"/>
			<path id="XMLID_1791_" fill="#E0E0E0" d="M396.12,97.332c0.07-0.032,0.153-0.057,0.249-0.057l3.386-0.191
				c0.338-0.025,0.593-0.268,0.567-0.555c-0.044-0.536-0.076-1.065-0.076-1.582C398.327,96.056,396.356,97.198,396.12,97.332z"/>
			<path id="XMLID_1787_" fill="#E0E0E0" d="M432.379,94.43c0.025,0.044,0.07,0.096,0.114,0.134h0.007
				C432.455,94.52,432.41,94.475,432.379,94.43z"/>
			<path id="XMLID_1784_" fill="#E0E0E0" d="M437.64,96.337c0.063,0.083,0.108,0.166,0.134,0.249l0.229,0.778l1.218,4.101
				l0.415,1.403c0.025,0.077,0.025,0.159,0.006,0.229c-0.013,0.044-0.025,0.083-0.051,0.121s-0.058,0.077-0.096,0.102
				c-0.007,0.006-0.025,0.019-0.063,0.045l-0.625,0.363l-0.173,0.096v0.006l-0.497,0.287l-0.268,0.16l-0.306,0.172l-0.115,0.07
				l-0.325,0.185l-1.805,1.04c-0.013,0.006-0.02,0.013-0.02,0.013l-3.8,2.2c0.159-0.102,0.229-0.28,0.172-0.472l-1.639-5.516
				l-0.229-0.771c-0.025-0.089-0.083-0.179-0.153-0.261L437.64,96.337z"/>
			<path id="XMLID_1780_" fill="#E0E0E0" d="M409.563,120.658v0.006l4.151-2.41c-0.389-0.229-0.791-0.485-1.187-0.752
				c-0.331-0.223-0.701-0.243-0.842-0.019l-2.021,3.086C409.633,120.607,409.601,120.639,409.563,120.658z"/>
			<path id="XMLID_1778_" fill="#E0E0E0" d="M422.087,120.364l1.243,5.656c0.032,0.166-0.032,0.3-0.166,0.383
				c0.249-0.14,4.151-2.398,6.402-3.705c-0.127,0-0.287-0.07-0.439-0.204l-4.03-3.686c-0.287-0.262-0.67-0.325-0.88-0.153
				c-0.529,0.434-1.104,0.766-1.729,1.008C422.208,119.771,422.017,120.078,422.087,120.364z"/>
			<path id="XMLID_1776_" fill="#E0E0E0" d="M427.258,112.049c-0.013,0.128,0.013,0.287,0.07,0.453l7.978-4.604
				c-0.058-0.172-0.089-0.332-0.076-0.459c0.051-0.548,0.076-1.11,0.069-1.684l-3.8,2.2c-0.007,0.007-0.013,0.013-0.02,0.013
				c-0.076,0.044-0.166,0.07-0.268,0.076l-3.393,0.191c-0.345,0.019-0.593,0.268-0.567,0.555
				C427.354,109.919,427.354,111.016,427.258,112.049z"/>
			<path id="XMLID_1774_" fill="#E0E0E0" d="M429.738,122.654c0.128-0.07,0.766-0.44,1.627-0.938
				c0.102-0.058,0.203-0.121,0.306-0.179c0.784-0.459,1.722-0.995,2.614-1.511c0.242-0.14,0.479-0.28,0.708-0.408
				c1.384-0.81,2.538-1.473,2.685-1.556l0.013-0.013c0.025-0.013,0.051-0.032,0.063-0.051c0.026-0.025,0.038-0.051,0.051-0.076
				l1.799-3.973c0.045-0.089,0.051-0.204,0.032-0.332c-0.007-0.044-0.02-0.089-0.025-0.134l-7.972,4.604
				c0.051,0.179,0.051,0.357-0.006,0.479l-1.792,3.966C429.815,122.59,429.783,122.622,429.738,122.654z"/>
		</g>
		<g id="XMLID_1556_">
			<g id="XMLID_1575_">
				<g id="XMLID_1751_">
					<g id="XMLID_1753_">
						<path id="XMLID_1754_" fill="#F5F5F5" d="M426.31,150.4l2.568,8.627c0.118,0.408,0.633,0.837,1.153,0.96l5.088,1.228
							c0.521,0.124,1.094,0.552,1.298,0.96c0.804,1.619,1.716,3.217,2.734,4.756c0.263,0.397,0.408,1.003,0.306,1.351l-1.656,5.609
							c-0.103,0.343,0.102,0.933,0.455,1.303l5.957,6.29c0.29,0.306,0.639,0.402,0.864,0.263c0.054-0.027,0.096-0.07,0.134-0.124
							l2.777-4.241c0.193-0.3,0.708-0.279,1.158,0.032c0.547,0.37,1.094,0.718,1.635,1.035c0.574,0.333,1.153,0.638,1.722,0.906
							c0.499,0.241,1.035,0.74,1.186,1.147l2.943,7.882c0.15,0.402,0.681,0.772,1.185,0.826l5.422,0.536
							c0.203,0.021,0.38-0.016,0.509-0.091c0.005-0.005,0.011-0.005,0.017-0.011c0.182-0.112,0.273-0.3,0.225-0.531l-1.71-7.764
							c-0.092-0.396,0.171-0.82,0.558-0.97c0.853-0.333,1.646-0.789,2.369-1.378c0.29-0.236,0.821-0.15,1.213,0.204l5.538,5.067
							c0.21,0.188,0.424,0.284,0.606,0.284h0.005c0.07,0,0.135-0.016,0.193-0.048c0.005,0,0.011,0,0.016-0.005
							c0.006,0,0.006,0,0.006-0.005c0.064-0.038,0.118-0.091,0.15-0.171l2.466-5.448c0.146-0.327,0.006-0.906-0.316-1.292
							l-5.189-6.29c-0.322-0.386-0.542-0.997-0.505-1.373c0.135-1.421,0.129-2.928-0.011-4.483
							c-0.031-0.391,0.312-0.729,0.783-0.756l4.654-0.263c0.467-0.027,0.756-0.375,0.633-0.777l-2.563-8.633
							c-0.123-0.402-0.638-0.831-1.152-0.955l-5.095-1.228c-0.514-0.123-1.088-0.558-1.292-0.965
							c-0.81-1.62-1.721-3.212-2.739-4.751c-0.263-0.402-0.402-1.008-0.301-1.351l1.657-5.614c0.102-0.343-0.103-0.927-0.462-1.303
							l-5.951-6.29c-0.359-0.37-0.805-0.435-1.003-0.134l-2.772,4.236c-0.198,0.3-0.707,0.279-1.163-0.026
							c-1.126-0.772-2.247-1.421-3.356-1.947c-0.499-0.236-1.035-0.734-1.186-1.142l-2.938-7.882
							c-0.15-0.408-0.682-0.778-1.186-0.826l-5.421-0.542c-0.204-0.016-0.381,0.016-0.515,0.091
							c-0.193,0.113-0.29,0.311-0.236,0.547l1.711,7.759c0.086,0.402-0.178,0.82-0.558,0.971c-0.858,0.333-1.651,0.788-2.37,1.378
							c-0.289,0.236-0.82,0.155-1.212-0.204l-5.544-5.062c-0.284-0.263-0.59-0.349-0.794-0.247
							c-0.011,0.005-0.021,0.011-0.032,0.016c-0.064,0.038-0.118,0.097-0.15,0.172l-2.467,5.453c-0.145,0.322-0.005,0.9,0.316,1.292
							l5.191,6.284c0.321,0.392,0.541,1.003,0.509,1.373c-0.075,0.75-0.107,1.522-0.102,2.311c0.005,0.708,0.043,1.438,0.107,2.172
							c0.037,0.392-0.312,0.729-0.783,0.756l-4.649,0.263c-0.128,0.005-0.246,0.038-0.337,0.086
							c-0.011,0.005-0.021,0.011-0.027,0.016C426.342,149.859,426.229,150.116,426.31,150.4z M446.712,166.229
							c-5.555-5.861-8.192-14.74-5.893-19.829c0.901-1.984,2.413-3.1,4.263-3.368c0.069-0.016,0.14-0.021,0.209-0.027
							c0.064-0.011,0.129-0.016,0.198-0.021c0.064-0.005,0.129-0.011,0.193-0.011c0.017-0.005,0.027-0.005,0.043-0.005
							c1.19-0.054,2.493,0.22,3.845,0.815c0.45,0.193,0.911,0.429,1.367,0.697c1.372,0.799,2.762,1.909,4.107,3.33
							c4.166,4.402,6.691,10.493,6.724,15.41c0.006,0.542-0.021,1.067-0.086,1.577c-0.112,1.029-0.359,1.989-0.745,2.842
							c-1.029,2.281-2.882,3.409-5.107,3.434c-0.054,0-0.108,0.001-0.163,0c-0.114-0.001-0.23-0.005-0.347-0.013
							c-0.185-0.012-0.37-0.027-0.56-0.054c-0.161-0.021-0.322-0.048-0.482-0.081c-0.07-0.016-0.14-0.026-0.215-0.048
							c-0.102-0.021-0.198-0.048-0.3-0.075C451.511,170.224,449.039,168.685,446.712,166.229z"/>
					</g>
					<line id="XMLID_1752_" fill="none" x1="439.937" y1="123.194" x2="428.977" y2="129.54"/>
				</g>
				<path id="XMLID_1750_" fill="#EBEBEB" d="M448.088,133.58c0.158,0.395,0.684,0.876,1.166,1.104
					c1.112,0.525,2.233,1.174,3.355,1.945c0.455,0.307,0.963,0.333,1.165,0.026l2.769-4.231c0.035-0.062,0.088-0.105,0.141-0.132
					l0.043-0.026l2.754-1.598c-0.578-0.333-1.156-0.64-1.726-0.902c-0.069-0.035-0.132-0.07-0.201-0.114
					c-0.202-0.123-0.395-0.28-0.561-0.447c-0.07-0.07-0.141-0.149-0.202-0.228c-0.053-0.053-0.088-0.105-0.113-0.158
					c-0.026-0.053-0.053-0.097-0.079-0.149L448.088,133.58z"/>
				<path id="XMLID_1749_" fill="#EBEBEB" d="M462.281,145.933v0.009c-0.035,0.351,0.105,0.833,0.324,1.174
					c1.017,1.533,1.928,3.127,2.742,4.749c0.062,0.123,0.158,0.245,0.271,0.359l8.511-4.91c-0.062-0.053-0.123-0.123-0.158-0.184
					c-0.062-0.061-0.096-0.123-0.132-0.184c-0.797-1.621-1.717-3.225-2.732-4.758c-0.053-0.079-0.097-0.157-0.132-0.245
					c-0.035-0.053-0.053-0.114-0.07-0.175c-0.018-0.026-0.026-0.062-0.035-0.096c-0.009-0.009-0.009-0.026-0.009-0.053
					c-0.025-0.079-0.043-0.158-0.052-0.228c-0.036-0.131-0.044-0.254-0.026-0.359L462.281,145.933z"/>
				<line id="XMLID_1747_" fill="none" x1="439.81" y1="123.269" x2="439.94" y2="123.198"/>
			</g>
			<path id="XMLID_1572_" fill="#F5F5F5" d="M459.48,130.668l5.687-3.294c0.07-0.044,0.149-0.07,0.245-0.07
				c0.201,0,0.43,0.114,0.631,0.333h0.009l3.557,3.759l2.393,2.523c0.201,0.21,0.342,0.482,0.42,0.745l-5.917,3.385l-2.593,1.489
				c-0.079-0.245-0.228-0.5-0.412-0.692l-0.079-0.079l-5.87-6.211c-0.271-0.281-0.595-0.386-0.823-0.29L459.48,130.668z"/>
			<path id="XMLID_1571_" fill="#F5F5F5" d="M438.048,124.363c0.123-0.062,0.289-0.087,0.474-0.07l5.423,0.543
				c0.324,0.026,0.657,0.193,0.894,0.412l8.51-4.91c-0.236-0.228-0.578-0.394-0.902-0.429l-5.423-0.535
				c-0.219-0.026-0.403,0.018-0.534,0.097c-0.035,0.026-0.604,0.35-1.463,0.85c-0.22,0.131-0.465,0.271-0.719,0.42
				c-1.332,0.771-0.616,0.354-2.193,1.274c-0.395,0.228-0.779,0.456-1.147,0.666c-0.289,0.158-0.569,0.324-0.833,0.473
				C439.021,123.803,438.206,124.267,438.048,124.363z"/>
			<path id="XMLID_1570_" fill="#E6E6E6" d="M465.619,152.224c0.271,0.28,0.657,0.517,1.017,0.604l5.099,1.227
				c0.359,0.088,0.719,0.324,0.938,0.596l8.527-4.901c-0.228-0.289-0.595-0.535-0.972-0.622l-5.091-1.227
				c-0.358-0.087-0.727-0.307-0.998-0.587h-0.009L465.619,152.224z"/>
			<path id="XMLID_1569_" fill="#E6E6E6" d="M469.483,170.543c0.096,0.271,0.236,0.543,0.411,0.753l5.188,6.291
				c0.157,0.184,0.262,0.412,0.323,0.631l8.502-4.91c-0.053-0.228-0.167-0.464-0.324-0.648l-5.195-6.291
				c-0.167-0.201-0.307-0.473-0.395-0.736L469.483,170.543z"/>
			<path id="XMLID_1568_" fill="#E0E0E0" d="M481.095,160.894l-0.157,0.097c0.069-0.044,0.14-0.079,0.201-0.114
				c0.131-0.079,0.254-0.148,0.377-0.219L481.095,160.894z"/>
			<path id="XMLID_1567_" fill="#E0E0E0" d="M446.713,166.233c2.322,2.453,4.801,3.986,7.053,4.573
				c0.097,0.026,0.192,0.053,0.298,0.07c0.07,0.026,0.141,0.035,0.211,0.052c0.166,0.026,0.323,0.053,0.481,0.079
				c0.192,0.026,0.377,0.043,0.561,0.053c0.123,0.008,0.236,0.008,0.351,0.008c0.053,0.009,0.105,0.009,0.166,0
				c2.226-0.018,4.074-1.147,5.108-3.425c0.385-0.858,0.631-1.813,0.744-2.848c-0.42-0.193-0.85-0.42-1.288-0.666
				c-6.019-3.478-10.89-11.916-10.89-18.863c0-0.526,0.018-1.017,0.062-1.48c-1.35-0.596-2.655-0.876-3.847-0.815h-0.043
				c-0.062,0-0.123,0.008-0.193,0.008c-0.07,0.009-0.131,0.018-0.192,0.026c-0.07,0-0.141,0.009-0.211,0.026
				c-1.849,0.271-3.364,1.384-4.267,3.364C438.521,151.488,441.158,160.372,446.713,166.233z"/>
			<path id="XMLID_1566_" fill="#E0E0E0" d="M462.281,145.933l8.502-4.901c-0.01-0.07,0-0.14,0.018-0.202l1.664-5.607
				c0.044-0.158,0.026-0.359-0.044-0.561l-5.917,3.385l-2.593,1.489c0.079,0.228,0.097,0.447,0.053,0.613l-1.656,5.607
				C462.29,145.811,462.281,145.863,462.281,145.933z"/>
			<path id="XMLID_1565_" fill="#E0E0E0" d="M444.838,125.248c0.132,0.123,0.236,0.263,0.289,0.412l2.943,7.885
				c0,0.009,0.01,0.026,0.018,0.035l8.511-4.91c-0.018-0.018-0.018-0.035-0.026-0.053l-2.943-7.885
				c-0.053-0.14-0.149-0.28-0.281-0.394L444.838,125.248z"/>
			<path id="XMLID_1564_" fill="#E0E0E0" d="M429.041,129.506c0.202-0.079,0.482,0.009,0.763,0.263l5.537,5.064
				c0.395,0.359,0.929,0.438,1.218,0.201c0.719-0.587,1.507-1.042,2.365-1.375c0.386-0.149,0.648-0.57,0.561-0.973l-1.708-7.754
				c-0.052-0.236,0.044-0.438,0.237-0.552c0.008-0.009,0.017-0.009,0.034-0.018c0.158-0.096,0.973-0.561,2.085-1.209
				c-0.069,0-0.14,0.009-0.201,0.035c0,0-0.053,0.026-0.123,0.079L429.041,129.506z"/>
			<path id="XMLID_1563_" fill="#E0E0E0" d="M426.606,149.701c0.096-0.044,0.21-0.079,0.341-0.079l4.652-0.263
				c0.465-0.035,0.814-0.368,0.78-0.762c-0.062-0.736-0.105-1.463-0.105-2.173C429.638,147.948,426.93,149.517,426.606,149.701z"/>
			<path id="XMLID_1562_" fill="#E0E0E0" d="M473.972,147.13c0.035,0.062,0.097,0.131,0.158,0.184h0.009
				C474.077,147.252,474.016,147.191,473.972,147.13z"/>
			<path id="XMLID_1561_" fill="#E0E0E0" d="M481.199,149.75c0.088,0.114,0.149,0.228,0.185,0.342l0.315,1.069l1.674,5.633
				l0.569,1.928c0.035,0.105,0.035,0.219,0.009,0.315c-0.018,0.062-0.035,0.114-0.07,0.167c-0.035,0.053-0.079,0.105-0.132,0.14
				c-0.009,0.009-0.034,0.026-0.088,0.062l-0.858,0.499l-0.236,0.132v0.009l-0.684,0.394l-0.367,0.219l-0.421,0.236l-0.157,0.097
				l-0.447,0.254l-2.479,1.428c-0.018,0.008-0.026,0.017-0.026,0.017l-2.771,1.607c0.219-0.141,0.315-0.386,0.236-0.648
				l-2.252-7.579l-0.315-1.06c-0.034-0.123-0.113-0.245-0.21-0.359L481.199,149.75z"/>
			<path id="XMLID_1560_" fill="#E0E0E0" d="M445.074,181.749v0.009l5.704-3.312c-0.535-0.315-1.087-0.666-1.63-1.034
				c-0.456-0.307-0.964-0.333-1.156-0.026l-2.777,4.24C445.171,181.679,445.127,181.723,445.074,181.749z"/>
			<path id="XMLID_1559_" fill="#E0E0E0" d="M462.281,181.346l1.709,7.771c0.043,0.228-0.044,0.412-0.229,0.525
				c0.342-0.193,5.704-3.294,8.797-5.09c-0.176,0-0.395-0.096-0.605-0.28l-5.536-5.064c-0.395-0.359-0.92-0.447-1.21-0.21
				c-0.727,0.596-1.515,1.051-2.374,1.384C462.447,180.531,462.186,180.952,462.281,181.346z"/>
			<path id="XMLID_1558_" fill="#E0E0E0" d="M469.387,169.921c-0.018,0.175,0.018,0.394,0.097,0.622l8.51-4.91
				c-0.079-0.236-0.122-0.456-0.104-0.63c0.069-0.754,0.104-1.524,0.096-2.313l-2.771,1.607c-0.009,0.008-0.018,0.018-0.026,0.018
				c-0.104,0.061-0.228,0.096-0.368,0.105l-4.661,0.263c-0.473,0.026-0.814,0.368-0.779,0.762
				C469.518,166.995,469.518,168.502,469.387,169.921z"/>
			<path id="XMLID_1557_" fill="#E0E0E0" d="M472.795,184.491c0.175-0.097,1.051-0.604,2.234-1.288
				c0.14-0.079,0.28-0.167,0.42-0.245c1.078-0.631,2.365-1.367,3.592-2.077c0.333-0.192,0.657-0.385,0.973-0.561
				c1.901-1.113,1.037-0.608,1.238-0.722l0.018-0.018c0.035-0.018,0.07-0.044,0.088-0.07c0.035-0.035,0.053-0.07,0.07-0.105
				l2.471-5.458c0.062-0.123,0.07-0.28,0.044-0.456c-0.009-0.062-0.026-0.123-0.035-0.184l-8.502,4.91
				c0.07,0.245,0.07,0.491-0.009,0.657l-2.462,5.45C472.9,184.403,472.855,184.447,472.795,184.491z"/>
		</g>
	</g>
</g>
<g id="Devices">
	<g id="Device_2">
		<g id="XMLID_1473_">
			<path id="XMLID_1268_" fill="#27DEBF" d="M306.735,89.631v232.566c0,2.389,1.682,5.299,3.746,6.499l103.126,59.531
				c2.064,1.2,3.745,0.226,3.745-2.163V153.498c0-2.389-1.681-5.299-3.745-6.499L310.481,87.468
				C308.417,86.269,306.735,87.242,306.735,89.631z M312.134,117.386c0-2.045,1.436-2.881,3.215-1.849l93.766,54.124
				c1.77,1.033,3.215,3.52,3.215,5.575v182.178c0,2.055-1.445,2.88-3.215,1.858l-93.766-54.133
				c-1.779-1.023-3.215-2.326-3.215-4.371V117.386z"/>
			<path id="XMLID_1265_" opacity="0.5" d="M306.735,89.631v232.566c0,2.389,1.682,5.299,3.746,6.499l103.126,59.531
				c2.064,1.2,3.745,0.226,3.745-2.163V153.498c0-2.389-1.681-5.299-3.745-6.499L310.481,87.468
				C308.417,86.269,306.735,87.242,306.735,89.631z M312.134,117.386c0-2.045,1.436-2.881,3.215-1.849l93.766,54.124
				c1.77,1.033,3.215,3.52,3.215,5.575v182.178c0,2.055-1.445,2.88-3.215,1.858l-93.766-54.133
				c-1.779-1.023-3.215-2.326-3.215-4.371V117.386z"/>
		</g>
		<g id="XMLID_1472_">
			<path id="XMLID_1264_" fill="#27DEBF" d="M414.074,388.462c2.08,0.957,5.106,0.873,7.038-0.232l4.289-2.479
				c2.08-1.198,3.76-4.094,3.76-6.499v-232.55c0-0.91-0.241-1.875-0.649-2.804c-0.13-0.306-0.278-0.604-0.445-0.9
				c-0.01,0-0.01-0.009-0.01-0.009l-11.801,6.815h-0.009c0.251,0.445,0.474,0.91,0.649,1.374c0.288,0.78,0.455,1.578,0.455,2.321
				v232.569C417.352,388.268,415.922,389.271,414.074,388.462z"/>
			<path id="XMLID_1263_" opacity="0.7" d="M414.074,388.462c2.08,0.957,5.106,0.873,7.038-0.232l4.289-2.479
				c2.08-1.198,3.76-4.094,3.76-6.499v-232.55c0-0.91-0.241-1.875-0.649-2.804c-0.13-0.306-0.278-0.604-0.445-0.9
				c-0.01,0-0.01-0.009-0.01-0.009l-11.801,6.815h-0.009c0.251,0.445,0.474,0.91,0.649,1.374c0.288,0.78,0.455,1.578,0.455,2.321
				v232.569C417.352,388.268,415.922,389.271,414.074,388.462z"/>
		</g>
		<path id="XMLID_1144_" fill="none" stroke="#E6E6E6" stroke-miterlimit="10" d="M361.152,338.024
			c-3.27-1.888-5.92-0.357-5.92,3.418c0,3.776,2.65,8.367,5.92,10.255c3.271,1.888,5.921,0.357,5.921-3.418
			C367.073,344.503,364.423,339.912,361.152,338.024z"/>
		<g id="XMLID_1471_">
			<path id="XMLID_1259_" d="M362.044,122.249c-1.388-0.802-2.514-0.152-2.514,1.452c0,1.603,1.126,3.553,2.514,4.354
				c1.389,0.801,2.515,0.152,2.515-1.452S363.433,123.05,362.044,122.249z"/>
			<path id="XMLID_1137_" d="M371.75,137.541l-19.411-11.207c-1.158-0.669-2.097-0.194-2.097,1.061c0,1.255,0.938,2.813,2.097,3.482
				l19.411,11.207c1.158,0.668,2.097,0.193,2.097-1.061S372.908,138.209,371.75,137.541z"/>
		</g>
		<path id="XMLID_1136_" fill="#1152B9" d="M312.134,300.768c0,2.045,1.436,3.348,3.215,4.371l93.766,54.133
			c1.77,1.022,3.215,0.197,3.215-1.858V175.236c0-2.055-1.445-4.542-3.215-5.575l-93.766-54.124
			c-1.779-1.032-3.215-0.197-3.215,1.849V300.768z"/>
		<path id="XMLID_1135_" opacity="0.5" fill="#FFFFFF" d="M312.134,300.768c0,2.045,1.436,3.348,3.215,4.371l93.766,54.133
			c1.77,1.022,3.215,0.197,3.215-1.858V175.236c0-2.055-1.445-4.542-3.215-5.575l-93.766-54.124
			c-1.779-1.032-3.215-0.197-3.215,1.849V300.768z"/>
		<g id="XMLID_2107_">
			<g id="XMLID_2136_">
				<path id="XMLID_2218_" fill="#455A64" d="M318.404,131.165v-1.709c0-0.37,0.146-0.585,0.325-0.482l0.091,0.052
					c0.18,0.104,0.325,0.487,0.325,0.856v1.71c0,0.37-0.146,0.585-0.326,0.482l-0.09-0.052
					C318.55,131.918,318.404,131.535,318.404,131.165z"/>
				<path id="XMLID_2217_" fill="#455A64" d="M319.888,132.02v-2.953c0-0.37,0.146-0.585,0.326-0.481l0.091,0.053
					c0.18,0.104,0.325,0.487,0.325,0.857l0.001,2.954c0,0.369-0.146,0.584-0.326,0.48l-0.091-0.053
					C320.033,132.773,319.888,132.389,319.888,132.02z"/>
				<path id="XMLID_2216_" fill="#455A64" d="M321.373,132.879l0.001-4.197c0-0.37,0.146-0.585,0.325-0.481l0.09,0.052
					c0.18,0.104,0.326,0.487,0.326,0.856v4.198c0,0.369-0.146,0.584-0.326,0.481l-0.09-0.052
					C321.52,133.632,321.373,133.249,321.373,132.879z"/>
				<path id="XMLID_2137_" fill="#455A64" d="M322.857,133.734v-7.246c0-0.37,0.146-0.584,0.326-0.48l0.091,0.053
					c0.18,0.104,0.326,0.489,0.326,0.858l-0.002,7.242c0,0.369-0.146,0.584-0.325,0.481l-0.091-0.052
					C323.003,134.486,322.857,134.103,322.857,133.734z"/>
			</g>
			<g id="XMLID_2130_">
				<path id="XMLID_2133_" fill="#455A64" d="M326.876,136.55c-0.029-0.067-0.045-0.157-0.045-0.269v-1.064l-1.664-0.959
					c-0.091-0.053-0.137-0.154-0.137-0.306v-0.381c0-0.086,0.005-0.151,0.016-0.192c0.011-0.04,0.03-0.086,0.058-0.138l1.77-2.788
					c0.032-0.05,0.061-0.08,0.084-0.09c0.024-0.012,0.063-0.003,0.115,0.028l0.232,0.135c0.069,0.039,0.119,0.095,0.151,0.17
					c0.031,0.073,0.048,0.171,0.048,0.289v3.716l0.367,0.211c0.07,0.042,0.119,0.095,0.146,0.163
					c0.028,0.071,0.042,0.164,0.042,0.282v0.253c0,0.112-0.014,0.184-0.042,0.217c-0.027,0.034-0.076,0.032-0.146-0.009
					l-0.367-0.212v1.063c0,0.112-0.016,0.186-0.045,0.217c-0.03,0.031-0.082,0.027-0.154-0.014l-0.279-0.163
					C326.955,136.671,326.906,136.618,326.876,136.55z M326.941,134.375v-2.649l-1.208,1.953L326.941,134.375z"/>
				<path id="XMLID_2131_" fill="#455A64" d="M328.853,137.047c-0.326-0.761-0.488-1.673-0.488-2.737
					c0-1.059,0.163-1.781,0.49-2.167c0.327-0.387,0.788-0.408,1.378-0.067c0.238,0.137,0.461,0.308,0.668,0.517
					c0.206,0.206,0.377,0.428,0.514,0.669c0.032,0.055,0.048,0.104,0.048,0.148c0,0.03-0.007,0.064-0.021,0.099l-0.152,0.379
					c-0.021,0.043-0.042,0.061-0.063,0.049c-0.011-0.007-0.034-0.036-0.068-0.086c-0.238-0.374-0.521-0.656-0.851-0.846
					c-0.398-0.23-0.713-0.211-0.94,0.058c-0.227,0.272-0.341,0.813-0.341,1.629c0,0.822,0.11,1.496,0.331,2.021
					c0.22,0.525,0.522,0.898,0.908,1.121c0.14,0.081,0.276,0.14,0.409,0.176c0.133,0.035,0.242,0.042,0.326,0.016v-1.727
					l-0.693-0.401c-0.07-0.04-0.118-0.094-0.146-0.164c-0.029-0.069-0.043-0.163-0.043-0.281v-0.243
					c0-0.118,0.014-0.192,0.043-0.222c0.028-0.031,0.076-0.026,0.146,0.014l1.107,0.639c0.077,0.044,0.133,0.11,0.166,0.195
					c0.033,0.084,0.05,0.195,0.05,0.333v2.464c0,0.093-0.005,0.16-0.017,0.2c-0.01,0.042-0.032,0.07-0.067,0.087
					c-0.321,0.175-0.76,0.102-1.313-0.217C329.638,138.358,329.178,137.808,328.853,137.047z"/>
			</g>
			<g id="XMLID_2111_">
				<path id="XMLID_2127_" fill="#455A64" d="M404.736,173.97c-0.187-0.491-0.42-0.836-0.659-0.974l-4.984-2.88
					c-0.431-0.249-0.767,0.247-0.767,1.128v3.727c0,0.491,0.103,1.032,0.289,1.522c0.079,0.21,0.169,0.396,0.267,0.552
					c0.126,0.202,0.258,0.343,0.393,0.421l4.984,2.88c0.431,0.248,0.767-0.247,0.767-1.129v-3.727
					C405.025,175.001,404.924,174.46,404.736,173.97z M398.797,176.224c-0.068-0.178-0.106-0.422-0.106-0.668v-3.727
					c0-0.649,0.267-1.043,0.584-0.86l4.984,2.88c0.077,0.045,0.15,0.12,0.21,0.216c0.033,0.052,0.062,0.11,0.086,0.175
					c0.068,0.178,0.106,0.422,0.106,0.667v3.727c0,0.651-0.267,1.045-0.584,0.861l-4.984-2.88
					C398.972,176.546,398.866,176.406,398.797,176.224z"/>
				<g id="XMLID_2114_">
					<path id="XMLID_2126_" fill="#455A64" d="M401.943,173.177v4.411l-2.685-1.55c-0.043-0.023-0.069-0.059-0.086-0.07
						c0.009-0.012,0-0.069,0-0.15v-3.349c0-0.473,0.208-0.771,0.433-0.641L401.943,173.177z"/>
				</g>
				<g id="XMLID_2112_">
					<path id="XMLID_2113_" fill="#455A64" d="M405.273,175.659c0.184,0.104,0.332,0.808,0.332,1.573v0.692
						c0,0.766-0.15,1.313-0.336,1.225l-0.337-0.161l0.008-3.516C404.94,175.472,405.09,175.555,405.273,175.659z"/>
				</g>
			</g>
		</g>
		<g id="XMLID_1151_">
			<g id="XMLID_1250_">
				<path id="XMLID_1251_" fill="#455A64" d="M392.899,172.408c0,0.821-0.433,1.237-0.966,0.929
					c-0.533-0.308-0.966-1.223-0.966-2.044c0-0.821,0.433-1.237,0.966-0.93C392.467,170.671,392.899,171.587,392.899,172.408z"/>
			</g>
			<g id="XMLID_1212_">
				<g id="XMLID_1214_">
					<path id="XMLID_1218_" fill="#455A64" d="M391.933,167.93c-0.973-0.562-1.818-0.21-2.246,0.777
						c-0.087,0.2-0.043,0.537,0.103,0.796l0.001,0.003c0.184,0.326,0.454,0.4,0.563,0.146c0.299-0.703,0.896-0.95,1.58-0.555
						c0.686,0.396,1.282,1.334,1.58,2.38c0.108,0.381,0.38,0.62,0.563,0.503l0.002-0.001c0.145-0.092,0.188-0.377,0.102-0.677
						C393.752,169.821,392.906,168.492,391.933,167.93z"/>
				</g>
			</g>
			<g id="XMLID_1152_">
				<g id="XMLID_1203_">
					<path id="XMLID_1204_" fill="#455A64" d="M391.933,165.549c-1.446-0.835-2.72-0.406-3.448,0.926
						c-0.107,0.196-0.076,0.553,0.08,0.833l0.003,0.005c0.177,0.317,0.433,0.392,0.554,0.168c0.59-1.095,1.629-1.448,2.812-0.765
						s2.226,2.238,2.816,4.015c0.12,0.363,0.376,0.584,0.553,0.471l0,0c0.156-0.099,0.188-0.42,0.081-0.739
						C394.659,168.292,393.382,166.386,391.933,165.549z"/>
				</g>
			</g>
		</g>
		<g id="XMLID_1470_">
			<path id="XMLID_1104_" fill="#27DEBF" d="M306.772,89.036c0.27-1.95,1.829-2.656,3.704-1.569l103.134,59.533
				c1.03,0.594,1.968,1.625,2.646,2.804l11.801-6.815c-0.687-1.179-1.615-2.191-2.655-2.786L322.287,80.661
				c-2.062-1.198-5.422-1.198-7.502,0l-4.309,2.469C308.583,84.235,307.014,86.77,306.772,89.036z"/>
			<path id="XMLID_1101_" opacity="0.2" d="M306.772,89.036c0.27-1.95,1.829-2.656,3.704-1.569l103.134,59.533
				c1.03,0.594,1.968,1.625,2.646,2.804l11.801-6.815c-0.687-1.179-1.615-2.191-2.655-2.786L322.287,80.661
				c-2.062-1.198-5.422-1.198-7.502,0l-4.309,2.469C308.583,84.235,307.014,86.77,306.772,89.036z"/>
		</g>
		<path id="XMLID_1106_" fill="#27DEBF" d="M383.108,312.583c0,0-10.687,10.696-24.899,6.609c0,0,4.277,4.216,14.35,1.384
			C379.346,318.667,383.108,312.583,383.108,312.583z"/>
		<path id="XMLID_1130_" fill="#27DEBF" d="M404.326,246.958c0,0,5.46,14.099-4.025,25.445c0,0,5.586-2.208,7.068-12.564
			C408.369,252.859,404.326,246.958,404.326,246.958z"/>
		<path id="XMLID_1105_" fill="#27DEBF" d="M381.968,317.069c9.972-10.286,14.355-22.301,14.456-34.573c0,0,2.909,7.3-1.637,18.824
			C390.241,312.845,381.968,317.069,381.968,317.069z"/>
	</g>
	<g id="Device_1">
		<g id="XMLID_1509_">
			<path id="XMLID_1612_" fill="#27DEBF" d="M189.518,87.468L86.393,146.999c-2.064,1.2-3.746,4.11-3.746,6.499v232.565
				c0,2.389,1.681,3.363,3.746,2.163l103.125-59.531c2.065-1.199,3.746-4.109,3.746-6.499V89.631
				C193.264,87.242,191.583,86.269,189.518,87.468z M187.866,300.768c0,2.045-1.436,3.348-3.215,4.371l-93.766,54.133
				c-1.77,1.022-3.215,0.197-3.215-1.858V175.236c0-2.055,1.445-4.542,3.215-5.575l93.766-54.124
				c1.779-1.032,3.215-0.197,3.215,1.849V300.768z"/>
			<path id="XMLID_693_" opacity="0.5" d="M189.518,87.468L86.393,146.999c-2.064,1.2-3.746,4.11-3.746,6.499v232.565
				c0,2.389,1.681,3.363,3.746,2.163l103.125-59.531c2.065-1.199,3.746-4.109,3.746-6.499V89.631
				C193.264,87.242,191.583,86.269,189.518,87.468z M187.866,300.768c0,2.045-1.436,3.348-3.215,4.371l-93.766,54.133
				c-1.77,1.022-3.215,0.197-3.215-1.858V175.236c0-2.055,1.445-4.542,3.215-5.575l93.766-54.124
				c1.779-1.032,3.215-0.197,3.215,1.849V300.768z"/>
		</g>
		<g id="XMLID_1416_">
			<path id="XMLID_1103_" fill="#27DEBF" d="M85.926,388.462c-2.08,0.957-5.106,0.873-7.038-0.232l-4.289-2.479
				c-2.08-1.198-3.76-4.094-3.76-6.499v-232.55c0-0.91,0.241-1.875,0.65-2.804c0.13-0.306,0.278-0.604,0.445-0.9
				c0.01,0,0.01-0.009,0.01-0.009l11.8,6.815h0.009c-0.25,0.445-0.474,0.91-0.65,1.374c-0.288,0.78-0.455,1.578-0.455,2.321v232.569
				C82.648,388.268,84.078,389.271,85.926,388.462z"/>
			<path id="XMLID_1099_" opacity="0.7" d="M85.926,388.462c-2.08,0.957-5.106,0.873-7.038-0.232l-4.289-2.479
				c-2.08-1.198-3.76-4.094-3.76-6.499v-232.55c0-0.91,0.241-1.875,0.65-2.804c0.13-0.306,0.278-0.604,0.445-0.9
				c0.01,0,0.01-0.009,0.01-0.009l11.8,6.815h0.009c-0.25,0.445-0.474,0.91-0.65,1.374c-0.288,0.78-0.455,1.578-0.455,2.321v232.569
				C82.648,388.268,84.078,389.271,85.926,388.462z"/>
		</g>
		<path id="XMLID_1608_" fill="none" stroke="#E6E6E6" stroke-miterlimit="10" d="M138.847,338.024
			c3.27-1.888,5.92-0.357,5.92,3.418c0,3.776-2.651,8.367-5.92,10.255c-3.27,1.888-5.92,0.357-5.92-3.418
			C132.927,344.503,135.577,339.912,138.847,338.024z"/>
		<g id="XMLID_1415_">
			<path id="XMLID_1609_" d="M137.956,122.249c1.389-0.802,2.514-0.152,2.514,1.452c0,1.603-1.125,3.553-2.514,4.354
				c-1.389,0.801-2.514,0.152-2.514-1.452S136.567,123.05,137.956,122.249z"/>
			<path id="XMLID_1607_" d="M128.25,137.541l19.411-11.207c1.158-0.669,2.097-0.194,2.097,1.061c0,1.255-0.938,2.813-2.097,3.482
				l-19.412,11.207c-1.158,0.668-2.097,0.193-2.096-1.061C126.153,139.769,127.092,138.209,128.25,137.541z"/>
		</g>
		<path id="XMLID_1606_" fill="#1152B9" d="M187.866,300.768c0,2.045-1.436,3.348-3.215,4.371l-93.766,54.133
			c-1.77,1.022-3.215,0.197-3.215-1.858V175.236c0-2.055,1.445-4.542,3.215-5.575l93.766-54.124
			c1.779-1.032,3.215-0.197,3.215,1.849V300.768z"/>
		<path id="XMLID_1143_" opacity="0.9" fill="#FFFFFF" d="M188.053,301.212c0,2.045-1.436,3.348-3.215,4.371l-93.766,54.133
			c-1.77,1.022-3.215,0.197-3.215-1.858V175.68c0-2.055,1.445-4.542,3.215-5.575l93.766-54.124c1.779-1.032,3.215-0.197,3.215,1.849
			V301.212z"/>
		<g id="XMLID_1258_">
			<g id="XMLID_1364_">
				<path id="XMLID_1365_" fill="#455A64" d="M163.47,139.574c0,0.821,0.433,1.237,0.966,0.929c0.533-0.308,0.965-1.223,0.965-2.044
					c0-0.821-0.432-1.237-0.965-0.93C163.903,137.838,163.47,138.753,163.47,139.574z"/>
			</g>
			<g id="XMLID_1360_">
				<g id="XMLID_1361_">
					<path id="XMLID_1362_" fill="#455A64" d="M162.189,138.469c-0.086,0.299-0.043,0.585,0.102,0.677l0.002,0.001
						c0.184,0.116,0.455-0.123,0.563-0.503c0.298-1.046,0.895-1.984,1.58-2.38c0.684-0.395,1.281-0.147,1.581,0.555
						c0.108,0.254,0.378,0.179,0.562-0.146l0.001-0.003c0.146-0.259,0.189-0.596,0.103-0.796c-0.428-0.987-1.273-1.339-2.246-0.777
						C163.463,135.658,162.618,136.988,162.189,138.469z"/>
				</g>
			</g>
			<g id="XMLID_1356_">
				<g id="XMLID_1357_">
					<path id="XMLID_1358_" fill="#455A64" d="M160.987,137.63c-0.106,0.319-0.076,0.64,0.081,0.739l0,0
						c0.177,0.112,0.433-0.108,0.553-0.471c0.591-1.777,1.633-3.333,2.816-4.015c1.182-0.683,2.222-0.33,2.812,0.765
						c0.121,0.224,0.376,0.149,0.554-0.168l0.003-0.005c0.156-0.28,0.187-0.637,0.08-0.833c-0.729-1.332-2.002-1.761-3.448-0.926
						C162.987,133.553,161.71,135.459,160.987,137.63z"/>
				</g>
			</g>
		</g>
		<g id="XMLID_2102_">
			<g id="XMLID_2121_">
				<path id="XMLID_2125_" fill="#455A64" d="M93.595,180.798v-1.48c0-0.32,0.168-0.677,0.376-0.797l0.104-0.06
					c0.208-0.121,0.376,0.042,0.376,0.361v1.481c0,0.32-0.168,0.677-0.376,0.797l-0.104,0.06
					C93.764,181.28,93.595,181.118,93.595,180.798z"/>
				<path id="XMLID_2124_" fill="#455A64" d="M95.308,179.807v-2.558c0-0.32,0.168-0.677,0.376-0.796l0.105-0.061
					c0.208-0.12,0.376,0.042,0.376,0.362v2.558c0,0.32-0.169,0.677-0.376,0.796l-0.105,0.061
					C95.477,180.29,95.308,180.127,95.308,179.807z"/>
				<path id="XMLID_2123_" fill="#455A64" d="M97.024,178.818l0-3.635c0-0.319,0.168-0.676,0.376-0.797l0.104-0.06
					c0.208-0.121,0.376,0.042,0.376,0.361v3.635c0,0.32-0.168,0.677-0.376,0.797l-0.104,0.06
					C97.192,179.3,97.024,179.138,97.024,178.818z"/>
				<path id="XMLID_2122_" fill="#455A64" d="M98.737,177.827v-6.275c0-0.32,0.168-0.676,0.376-0.796l0.105-0.061
					c0.208-0.12,0.376,0.043,0.376,0.363l-0.001,6.273c0,0.32-0.169,0.677-0.376,0.797l-0.104,0.061
					C98.905,178.309,98.737,178.147,98.737,177.827z"/>
			</g>
			<g id="XMLID_2115_">
				<path id="XMLID_2118_" fill="#455A64" d="M103.377,175.578c-0.034-0.024-0.052-0.084-0.052-0.181v-0.921l-1.921,1.11
					c-0.105,0.061-0.158,0.026-0.158-0.105v-0.33c0-0.075,0.006-0.137,0.018-0.185c0.013-0.047,0.035-0.11,0.067-0.187l2.042-4.478
					c0.037-0.081,0.07-0.14,0.098-0.177c0.028-0.039,0.072-0.075,0.133-0.11l0.267-0.153c0.081-0.048,0.139-0.057,0.176-0.03
					c0.036,0.027,0.054,0.093,0.054,0.195v3.218l0.424-0.246c0.082-0.046,0.138-0.057,0.17-0.031
					c0.032,0.029,0.048,0.093,0.048,0.195v0.22c0,0.097-0.016,0.175-0.048,0.237c-0.032,0.062-0.088,0.117-0.17,0.163l-0.424,0.245
					v0.921c0,0.097-0.017,0.178-0.052,0.24c-0.035,0.063-0.094,0.119-0.178,0.168l-0.322,0.185
					C103.469,175.59,103.412,175.602,103.377,175.578z M103.453,173.618v-2.295l-1.395,3.1L103.453,173.618z"/>
				<path id="XMLID_2116_" fill="#455A64" d="M105.66,173.702c-0.377-0.278-0.564-0.879-0.564-1.8c0-0.917,0.189-1.733,0.567-2.449
					c0.378-0.717,0.909-1.272,1.591-1.666c0.275-0.16,0.532-0.271,0.771-0.332c0.238-0.063,0.436-0.07,0.594-0.021
					c0.037,0.01,0.055,0.036,0.055,0.074c0,0.026-0.008,0.063-0.024,0.11l-0.176,0.506c-0.024,0.062-0.048,0.102-0.073,0.116
					c-0.013,0.006-0.039,0.008-0.079,0.005c-0.275-0.046-0.603,0.04-0.981,0.259c-0.461,0.267-0.823,0.648-1.086,1.147
					c-0.262,0.501-0.394,1.102-0.394,1.809c0,0.711,0.128,1.167,0.383,1.363c0.254,0.198,0.604,0.168,1.048-0.088
					c0.162-0.093,0.319-0.201,0.473-0.326c0.153-0.125,0.279-0.246,0.376-0.367v-1.496l-0.8,0.461
					c-0.082,0.048-0.138,0.058-0.17,0.03c-0.033-0.027-0.049-0.091-0.049-0.194v-0.21c0-0.102,0.016-0.183,0.049-0.242
					c0.032-0.06,0.088-0.112,0.17-0.16l1.278-0.738c0.088-0.051,0.153-0.059,0.191-0.024c0.039,0.034,0.058,0.111,0.058,0.229v2.134
					c0,0.081-0.006,0.145-0.019,0.192c-0.011,0.047-0.038,0.099-0.078,0.155c-0.372,0.527-0.878,0.975-1.517,1.344
					C106.566,173.922,106.035,173.981,105.66,173.702z"/>
			</g>
			<g id="XMLID_2103_">
				<path id="XMLID_2108_" fill="#455A64" d="M178.909,125.767c-0.216-0.207-0.486-0.233-0.761-0.074l-5.756,3.321
					c-0.497,0.286-0.885,1.108-0.885,1.872v3.228c0,0.425,0.118,0.774,0.333,0.981c0.092,0.089,0.196,0.145,0.308,0.167
					c0.146,0.028,0.298-0.003,0.453-0.092l5.756-3.321c0.497-0.287,0.886-1.108,0.886-1.873v-3.228
					C179.243,126.323,179.125,125.974,178.909,125.767z M172.051,134.648c-0.079-0.075-0.123-0.241-0.123-0.454v-3.228
					c0-0.563,0.309-1.216,0.674-1.426l5.756-3.321c0.089-0.051,0.174-0.071,0.242-0.058c0.038,0.007,0.071,0.024,0.099,0.051
					c0.079,0.075,0.124,0.241,0.124,0.453v3.228c0,0.564-0.309,1.217-0.674,1.427l-5.756,3.321
					C172.252,134.724,172.13,134.726,172.051,134.648z"/>
				<g id="XMLID_2106_">
					<path id="XMLID_2232_" fill="#455A64" d="M175.684,128.339v3.82l-3.1,1.79c-0.05,0.03-0.08,0.03-0.1,0.04
						c0.01-0.02,0-0.06,0-0.13v-2.9c0-0.41,0.24-0.91,0.5-1.06L175.684,128.339z"/>
				</g>
				<g id="XMLID_2104_">
					<path id="XMLID_2105_" fill="#455A64" d="M179.529,126.604c0.212-0.125,0.384,0.311,0.384,0.974v0.6
						c0,0.663-0.174,1.313-0.389,1.453l-0.389,0.253l0.01-3.054C179.145,126.83,179.316,126.729,179.529,126.604z"/>
				</g>
			</g>
		</g>
		<g id="XMLID_1493_">
			<path id="XMLID_1102_" fill="#27DEBF" d="M193.228,89.036c-0.27-1.95-1.829-2.656-3.705-1.569L86.39,146.999
				c-1.03,0.594-1.968,1.625-2.646,2.804l-11.8-6.815c0.687-1.179,1.615-2.191,2.655-2.786l103.114-59.542
				c2.061-1.198,5.422-1.198,7.502,0l4.308,2.469C191.417,84.235,192.986,86.77,193.228,89.036z"/>
			<path id="XMLID_1098_" opacity="0.2" d="M193.228,89.036c-0.27-1.95-1.829-2.656-3.705-1.569L86.39,146.999
				c-1.03,0.594-1.968,1.625-2.646,2.804l-11.8-6.815c0.687-1.179,1.615-2.191,2.655-2.786l103.114-59.542
				c2.061-1.198,5.422-1.198,7.502,0l4.308,2.469C191.417,84.235,192.986,86.77,193.228,89.036z"/>
		</g>
		<path id="XMLID_803_" fill="#27DEBF" d="M106.131,302.192c0,0-0.13,15.118,12.752,22.384c0,0-6.006-0.092-11.051-9.258
			C104.432,309.141,106.131,302.192,106.131,302.192z"/>
		<path id="XMLID_1085_" fill="#27DEBF" d="M102.872,308.25c-2.229-14.151,1.106-26.499,8.091-36.589c0,0-6.582,4.293-9.502,16.333
			C98.541,300.032,102.872,308.25,102.872,308.25z"/>
	</g>
</g>
<g id="Characters">
	<g id="Character_shaking_hands">
		<g id="XMLID_1468_">
			<g id="XMLID_1107_">
				<g id="Girl_1_">
					<path id="XMLID_1148_" fill="#B16668" d="M326.856,223.951l4.238-12.653c-11.146,1.959-14.173,3.521-17.469,12.729
						l-2.176,7.347l-13.338,41.056c-3.165,0.827-42.498,11.666-43.871,11.836c-0.038,0.048-0.064,0.103-0.101,0.152
						c-12.852,0.819-16.956,1.392-16.956,1.392c3.609,9.444,10.373,14.757,19.727,16.676l-0.032-0.214
						c0.012,0.023,0.021,0.046,0.032,0.069c16.548-2.82,43.697-9.226,52.53-12.151c3.714-1.188,5.308-5.376,6.84-8.88
						c6.246-14.285,12.78-33.55,15.043-45.139C332.677,229.245,330.566,225.753,326.856,223.951z"/>
					<path id="XMLID_1115_" fill="#37474F" d="M331.094,211.298c0,0-11.071-1.698-15.872,8.464
						c-3.238,6.853-13.075,36.202-13.075,36.202s7.021,8.963,22.335,9.545c0,0,14.476-33.247,13.664-34.305
						C337.334,230.146,331.094,211.298,331.094,211.298z"/>
					<g id="XMLID_1128_">
						<path id="XMLID_1131_" fill="#FAFAFA" d="M329.06,211.087c-2.688,0.267-9.511,9.384-9.651,24.904
							c-0.189,20.785,9.984,46.237,12.559,51.733c2.575,5.496,7.538,16.234,16.044,24.215c2.726,2.558,21.366,9.813,33.383-3.689
							c12.219-13.73,10.284-31.77,7.845-37.419c-4.084-9.463-11.321-20.471-11.057-32.925c-1.533-8.938-4.459-20.51-11.146-25.355
							c-2.75-0.703-11.402-1.806-13.094-1.586L329.06,211.087z"/>
					</g>
					<path id="XMLID_1369_" fill="#EBEBEB" d="M364.264,227.589l-3.413,4.285c1.046,6.792,6.147,16.596,12.139,24.429
						c4.668,6.103,14.168,12.403,17.985,23.195c-0.231-3.79-0.957-6.862-1.736-8.667c-4.084-9.463-11.321-20.471-11.057-32.925
						c-0.254-1.478-0.55-3.03-0.891-4.61l-3.205-2.896L364.264,227.589z"/>
					<g id="XMLID_1129_">
						<path id="XMLID_1112_" fill="#B16668" d="M367.036,212.551c5.854,1.442,8.965,4.532,14.119,10.376
							c5.826,6.607,17.821,20.482,17.821,20.482c8.396,14.544,0.852,29.335-5.438,26.896c0,0-14.179-13.843-22.88-24.345
							c-5.823-7.029-8.802-11.044-9.127-18.713C361.274,221.189,362.346,215.043,367.036,212.551z"/>
						<path id="XMLID_1092_" fill="#37474F" d="M363.941,211.956c0,0,5.049-1.116,11.623,4.176
							c6.573,5.292,22.629,22.772,22.629,22.772s0.479,18.505-11.314,26.854c0,0-17.395-17.455-21.69-23.497
							C361.592,237.204,356.752,224.698,363.941,211.956z"/>
					</g>
					<g id="XMLID_1119_">
						<path id="XMLID_1962_" fill="#263238" d="M360.851,177.036c0,0-2.541,15.51-3.732,18.095c-1.191,2.585-3.866,3.43-3.866,3.43
							l-0.282-10.813L360.851,177.036z"/>
						<path id="XMLID_1961_" fill="#263238" d="M352.602,154.488c0,0,4.185-2.112,7.063,0.564c2.82,2.624,3.056,11.847,0.892,23.743
							l-7.216-0.388L352.602,154.488z"/>
						<circle id="XMLID_1963_" fill="#263238" cx="326.528" cy="169.143" r="20.192"/>
						<path id="XMLID_1958_" fill="#263238" d="M353.203,156.064l6.242-5.741c-1.559-1.811-4.22-1.994-5.943-0.408
							C351.777,151.5,351.645,154.253,353.203,156.064z"/>
						<path id="XMLID_1127_" fill="#B16668" d="M315.813,157.345c-1.275,2.199-7.622,11.395-5.305,28.678
							c2.182,16.263,7.413,20.087,10.197,20.95c2.783,0.863,8.354,0.363,13.236-1.025l0.883,6.91c0,0-2.857,4.579,0.984,7.117
							c3.784,2.5,12.324,0.667,14.283-0.898c4.609-3.683,3.911-6.792,3.911-6.792l-1.033-22.447c0,0,3.471,2.86,7.941-0.507
							c4.217-3.175,4.405-11.546,0.848-14.429c-3.558-2.883-9.271-1.157-10.051,3.465c0,0-0.15-17.192-9.923-21.769
							C329.322,150.76,315.813,157.345,315.813,157.345z"/>
						<path id="XMLID_1959_" fill="#263238" d="M350.632,180.635c0.548-0.294,1.484-4.891,4.194-6.458
							c2.489-1.439-2.209-22.015-2.225-22.094c-0.286-1.511-1.832-3.286-2.845-4.384c-1.5-1.628-3.46-2.813-5.556-3.502
							c-2.88-0.948-5.998-1.005-8.994-0.541c-4.654,0.721-9.13,2.669-13.84,2.682c-4.47,0.011-8.737-1.723-13.122-2.596
							c-0.851-0.169-1.796-0.29-2.531,0.169c-0.42,0.262-0.716,0.687-0.925,1.135c-0.6,1.285-0.551,2.8-0.135,4.156
							c0.415,1.355,1.17,2.58,1.958,3.758c-1.56-0.729-3.759-0.79-4.665,0.674c-0.709,1.144-0.267,2.648,0.387,3.825
							c2.734,4.919,7.607,7.083,12.729,8.256c1.854,0.425,4.612,0.492,6.512,0.598c5.514,0.306,10.818-1.906,15.902-4.063
							c1.401-0.595,4.13-1.62,5.662-0.379c1.897,1.536,1.809,6.516,2.382,10.613C346.416,178.888,348.547,181.75,350.632,180.635z"
							/>
						<g id="XMLID_1121_">
							<path id="XMLID_1125_" fill="#9A4A4D" d="M332.945,192.988l-5.565,2.49c0.665,1.598,2.45,2.336,3.987,1.649
								C332.904,196.439,333.61,194.586,332.945,192.988z"/>
							<path id="XMLID_1124_" fill="#263238" d="M313.004,179.713c0.073,1.181,1.055,2.079,2.191,2.005
								c1.137-0.073,1.998-1.09,1.926-2.271c-0.073-1.182-1.055-2.08-2.19-2.006C313.793,177.515,312.931,178.532,313.004,179.713z"
								/>
							<path id="XMLID_1123_" fill="#263238" d="M329.063,178.724c0.073,1.181,1.054,2.079,2.191,2.005
								c1.137-0.073,1.999-1.09,1.926-2.271c-0.073-1.182-1.054-2.08-2.19-2.006C329.854,176.525,328.99,177.542,329.063,178.724z"
								/>
							<polygon id="XMLID_1122_" fill="#9A4A4D" points="323.62,179.156 323.253,191.573 316.724,189.528 							"/>
						</g>
						<path id="XMLID_1120_" fill="#9A4A4D" d="M333.941,205.948c4.098-0.938,12.117-4.39,13.64-7.386c0,0,0.146,1.913-2.284,4.805
							c-2.432,2.892-10.944,5.799-10.944,5.799L333.941,205.948z"/>
					</g>
					<path id="XMLID_1118_" fill="#263238" d="M311.372,175.399l4.627-1.998c-0.604-1.291-2.13-1.89-3.407-1.337
						C311.313,172.615,310.768,174.109,311.372,175.399z"/>
					<path id="XMLID_1133_" fill="#263238" d="M330.307,172.405l4.428,2.408c0.643-1.272,0.173-2.842-1.051-3.506
						C332.461,170.642,330.949,171.134,330.307,172.405z"/>
				</g>
			</g>
		</g>
		<g id="XMLID_1469_">
			<g id="XMLID_1139_">
				<g id="Girl">
					<g id="XMLID_805_">
						<path id="XMLID_1920_" fill="#263238" d="M197.211,209.215h-34.457c-17.143,0-31.048-13.879-31.08-31.022l-0.014-5.409
							c-0.035-16.53,13.337-29.958,29.867-29.993l5.62-0.016c16.53-0.035,29.958,13.337,29.993,29.867L197.211,209.215z"/>
					</g>
					<path id="XMLID_1140_" fill="#FFA8A7" d="M168.692,211.164c12.355-0.936,20.145,4.792,20.412,16.283
						c0.135,5.793-4.879,28.84-4.879,28.84L168.692,211.164z"/>
					<g id="XMLID_1094_">
						<path id="XMLID_1890_" fill="#27DEBF" d="M168.692,211.164c6.287,0.624,13.228,11.361,19.263,25.179
							c2.377,5.442,6.708,12.756,1.244,22.934c-3.379,6.295-10.341,8.83-10.341,8.83c-2.343,6.763-5.4,14.568-10.795,22.243
							c0,0-3.784,13.905-15.304,24.101c-2.799,2.477-19.905,17.63-33.695,5.945c-8.204-6.952-11.066-18.026-10.225-28.435
							c0.496-6.133,1.848-12.192,6.161-16.582c4.108-4.181,6.872-8.102,6.872-8.102c2.184-10.424-0.321-17.508-0.585-29.961
							c1.533-8.939,5.324-16.515,12.01-21.36c4.868-1.888,9.983-3.2,15.459-3.67L168.692,211.164z"/>
						<path id="XMLID_1116_" opacity="0.1" d="M168.478,289.727l-0.841-6.724c0,0-29.038-45.458-30.231-46.74
							c-0.717-0.77-7.672-5.409-13.117-8.995c-1.393,3.07-2.385,6.446-3.002,10.048c0.265,12.454,2.77,19.538,0.585,29.961
							c0,0-1.491,2.11-3.901,4.881c4.3,1.126,11.312-4.289,11.312-4.289s14.034,19.792,20.16,26.819
							c5.751,6.596,9.189,7.57,13.443,7.278c3.753-6.392,5.179-11.616,5.179-11.616
							C168.209,290.142,168.335,289.934,168.478,289.727z"/>
						<path id="XMLID_1114_" opacity="0.05" d="M189.199,259.277c0.295-0.55,0.557-1.09,0.797-1.625
							c-5.623,4.315-9.549,1.278-14.264,0.37c-4.88-0.941-8.507,6.026-17.628,5.143c-12.003-1.162-16.358-8.71-16.358-8.71
							s-0.318,13.065,14.552,15.934c9.946,1.918,13.59-3.45,16.343-3.449c1.198,0,2.267,0.93,6.217,1.167
							C178.858,268.106,185.82,265.572,189.199,259.277z"/>
					</g>
					<g id="XMLID_1638_">
						<path id="XMLID_1889_" fill="#FFA8A7" d="M185.829,158.954c1.237,2.135,7.399,11.062,5.149,27.839
							c-2.118,15.788-7.196,18.357-9.898,19.194c-2.702,0.837-8.111,0.352-12.85-0.996l-1.068,9.497c0,0,4.596,6.539,3.687,10.846
							c-0.91,4.308-10.094,3.75-15.861-1.207s-6.232-11.842-6.232-11.842l1.003-21.791c0,0-3.369,2.777-7.709-0.492
							c-4.093-3.082-4.277-11.208-0.823-14.007c3.454-2.798,9-1.123,9.757,3.365c0,0,10.719,2.484,20.205-1.959
							C183.286,171.734,185.063,163.496,185.829,158.954z"/>
						<g id="XMLID_1683_">
							<path id="XMLID_1888_" fill="#263238" d="M151.168,185.401l-0.291-9.919c2.806,0.003,5.146,2.226,5.225,4.965
								C156.183,183.186,153.974,185.404,151.168,185.401z"/>
							<path id="XMLID_1887_" fill="#F28F8F" d="M172.846,194.379l5.403,2.417c-0.646,1.551-2.378,2.268-3.87,1.601
								S172.201,195.93,172.846,194.379z"/>
							<path id="XMLID_1886_" fill="#263238" d="M188.555,180.849c-0.071,1.147-1.023,2.019-2.127,1.947
								c-1.104-0.072-1.94-1.059-1.87-2.206s1.023-2.019,2.126-1.947S188.625,179.702,188.555,180.849z"/>
							<path id="XMLID_1885_" fill="#263238" d="M174.058,181.985c-0.071,1.147-1.023,2.019-2.127,1.947s-1.94-1.059-1.87-2.206
								c0.071-1.147,1.023-2.019,2.126-1.947C173.292,179.851,174.129,180.838,174.058,181.985z"/>
							<polygon id="XMLID_1782_" fill="#F28F8F" points="179.861,180.72 180.218,192.773 186.556,190.789 							"/>
						</g>
						<path id="XMLID_1674_" fill="#F28F8F" d="M168.229,204.991c-3.979-0.911-11.762-4.261-13.241-7.17
							c0,0-0.142,1.857,2.218,4.664c2.36,2.807,10.676,5.589,10.676,5.589L168.229,204.991z"/>
					</g>
					<path id="XMLID_1138_" fill="#263238" d="M189.192,175.481l-4.492-1.939c0.586-1.253,2.067-1.834,3.308-1.299
						C189.249,172.779,189.779,174.229,189.192,175.481z"/>
				</g>
				<g id="XMLID_1142_">
					<path id="XMLID_1592_" fill="#FFA8A7" d="M162.299,298.43l9.761-18.667c3.239,0.464,6.479,0.917,9.719,1.366
						c6.451,0.893,30.819,3.882,32.203,3.897c2.53,0.026,4.633-0.497,7.805-1.693c3.861-1.456,6.728-3.773,9.841-4.415
						c1.938-0.4,3.418-0.27,4.395-0.199c1.849,0.134,1.371,1.118,3.196,1.442c0.516,0.091,1.06,0.205,1.441,0.564
						c0.702,0.662,0.191,1.069-0.184,1.602c-0.432,0.612-0.583,1.496-0.733,2.221c-0.139,0.667-0.693,2.952,0.256,3.32
						c4.609,1.789,5.126,4.431,11.108,9.559c2.859,2.451,4.406,4.223,6.334,5.476c1.209,1.826,1.296,2.969-2.984,5.521
						c-2.854,1.701-8.042,4.981-16.406,2.36c-9.163-2.872-13.85-7.987-16.213-8.119C205.078,301.731,171.406,300.34,162.299,298.43z
						"/>
					<path id="XMLID_1084_" fill="#FFA8A7" d="M172.06,279.763l-24.662-40.437c0,0-4.048-22.583-14.102-23.37
						c0,0-9.201,2.373-11.296,7.894c-2.533,6.678-2.409,13.217,5.139,28.044c5.7,11.198,21.154,32.301,27.333,39.457
						c2.5,2.894,5.229,6.284,7.827,7.079"/>
				</g>
			</g>
		</g>
		<g id="XMLID_1126_">
			<path id="XMLID_1417_" fill="#B16668" d="M222.123,302.705c0.657,0.097,1.997,0.737,2.58,1.265
				c0.955-0.065,2.266-0.58,4.156-1.958c4.623-3.373,20.498,3.396,16.586,7.75c-2.84,3.163-5.609,3.974-10.133,2.587
				C228.626,310.3,221.513,307.25,222.123,302.705z"/>
			<path id="XMLID_1134_" fill="#B16668" d="M237.524,279.278c-5.264,0.908-10.721,4.75-13.579,5.908
				c-2.858,1.158-5.789,1.858-3.166,4.366c2.623,2.508,9.008,0.016,13.413-1.564c2.992-1.073,6.786,0,8.48,0.702
				c1.24,0.514,0.577-2.841,0.577-2.841c-1.038-1.454,11.412,0.017,10.992-1.437C247.691,284.689,241.76,278.31,237.524,279.278z"/>
		</g>
	</g>
</g>
</svg>
