<!DOCTYPE svg PUBLIC "-//W3C//DTD SVG 1.1//EN" "http://www.w3.org/Graphics/SVG/1.1/DTD/svg11.dtd">
<!-- Uploaded to: SVG Repo, www.svgrepo.com, Transformed by: SVG Repo Mixer Tools -->
<svg fill="#000000" width="256px" height="256px" viewBox="-3.2 -3.2 38.40 38.40" version="1.1" xmlns="http://www.w3.org/2000/svg" transform="rotate(0)" stroke="#000000" stroke-width="0.6719999999999999">
<g id="SVGRepo_bgCarrier" stroke-width="0" transform="translate(7.199999999999999,7.199999999999999), scale(0.55)">
<path transform="translate(-3.2, -3.2), scale(1.2)" d="M16,30.267394396166004C17.894585117102263,29.629457823350144,19.181972619689148,27.95632637067305,20.801496097968496,26.784336805794844C22.142649740266815,25.813793251006736,23.341874755361278,24.721264307029315,24.78497754715363,23.91002931252285C26.86192990106052,22.742478088178544,29.928121647093217,22.95350674086128,31.200085914060445,20.9388072979106C32.370434571083905,19.085059634868756,31.771264548277493,16.393027916913496,30.75821765105559,14.448848819901396C29.749599795593237,12.51316967529261,26.993277716370006,12.159012088726595,25.706541768570773,10.39592549701532C24.594510969040837,8.872220034698422,25.202061254574097,6.479448881597729,23.927259016381136,5.089064010960911C22.65227311300125,3.698478822745798,20.680139208833832,2.886329174911204,18.79376186174482,2.8563838265227695C16.92421500549504,2.826705654217904,15.422456673229053,4.342154570873769,13.646117976592624,4.925855758517571C12.0564508834111,5.448217046939267,10.432013968992129,5.649182447416865,8.829480078847375,6.13062602014714C6.698896924401883,6.77070956045999,3.9663476565193716,6.512482725086348,2.5782352520329166,8.250940509761366C1.2520190782577072,9.911880087860155,2.0138093376094246,12.417484161369124,2.1143698206318806,14.540561458815505C2.205734692502325,16.4694969553656,2.118724248428938,18.540464272353503,3.143139449100101,20.17744722470723C4.148726869214306,21.784343981754404,6.714412840313497,21.853283235247048,7.702854857805791,23.470783042157834C8.993064299180455,25.58209911873717,7.590866720277022,29.02010269046933,9.504981321548765,30.588050798996203C11.200372223974865,31.97683126015903,13.922993485722973,30.966755119246457,16,30.267394396166004" fill="#1152B9" strokewidth="0"/>
</g>
<g id="SVGRepo_tracerCarrier" stroke-linecap="round" stroke-linejoin="round" stroke="#CCCCCC" stroke-width="0.256"/>
<g id="SVGRepo_iconCarrier"> <title>pc</title> <path d="M1.844 5.281h18.688c1.031 0 1.875 0.813 1.875 1.844v11.938c0 1.031-0.844 1.906-1.875 1.906h-7.281v3.094h5.313c0.781 0 0.844 2.563 0.938 2.656h-16.594s0-2.656 0.938-2.656h5.313v-3.094h-7.313c-1.031 0-1.844-0.875-1.844-1.906v-11.938c0-1.031 0.813-1.844 1.844-1.844zM1.844 19.063h18.688v-11.938h-18.688v11.938z"/> </g>
</svg>